<?xml version="1.0" encoding="utf-8"?>
<!-- Generator: Adobe Illustrator 23.0.2, SVG Export Plug-In . SVG Version: 6.00 Build 0)  -->
<svg version="1.1" id="Layer_1" xmlns="http://www.w3.org/2000/svg" xmlns:xlink="http://www.w3.org/1999/xlink" x="0px" y="0px"
	 viewBox="0 0 90 33.98" style="enable-background:new 0 0 90 33.98;" xml:space="preserve">
<style type="text/css">
	.st0{fill:#FFFFFF;}
</style>
<g>
	<g>
		<path class="st0" d="M11.57,25.25c-0.15,0.15-0.37,0.59-0.22,1.24c0.15,0.73,2.34,1.46,4.17,1.98l0.44,0.15l-0.07-0.44
			c-0.07-0.51-0.15-0.95-0.15-1.46c0-3.66,3-6.67,6.67-6.67s6.67,3,6.67,6.67c0,0.37-0.07,0.81-0.15,1.17l-0.07,0.29l33.86-0.07
			l-0.07-0.29c-0.07-0.37-0.07-0.73-0.07-1.1c0-3.66,3-6.67,6.67-6.67s6.67,3,6.67,6.67c0,0.29,0,0.59-0.07,0.88l-0.07,0.29h0.29
			h0.37c0.1,0,1.32-2.13,2.06-4.81c1.27-4.6,1-6.83,0.42-8.01s-5.63-8.02-10.18-9.11c-4.55-1.09-8.42-2.11-15.89-2.11
			c-3.66,0-6.74,0.29-9.08,0.81C34.6,6.7,28.27,11.38,27.91,11.6L23,14.02c-1.39,0.37-12.23,1.71-12.37,4.71l0,0
			C10.55,21.44,11.21,24.59,11.57,25.25z M65.12,12.96c-2.93,0.02-11.79,0.28-16.35,0.33c-4.89,0.06-20.46,1.17-20.46,1.17
			c3.19-2.97,8.35-6.19,13.57-7.42c5.62-1.32,8.33-1.12,11.36-1.12c4.08,0,10.31,1,13.6,2.13c3.38,1.16,1.93,2.35,1.52,3.05
			C68.37,11.1,67.27,12.92,65.12,12.96z"/>
	</g>
	<path class="st0" d="M64.37,26.71c0-2.68,2.18-4.87,4.87-4.87c2.68,0,4.87,2.18,4.87,4.87c0,2.68-2.18,4.87-4.87,4.87
		S64.37,29.4,64.37,26.71z M65.99,26.71c0,1.79,1.45,3.24,3.24,3.24c1.79,0,3.24-1.45,3.24-3.24c0-1.79-1.45-3.24-3.24-3.24
		S65.99,24.92,65.99,26.71z"/>
	<path class="st0" d="M17.62,26.71c0-2.68,2.18-4.87,4.87-4.87c2.68,0,4.87,2.18,4.87,4.87c0,2.68-2.18,4.87-4.87,4.87
		S17.61,29.4,17.62,26.71z M19.24,26.71c0,1.79,1.45,3.24,3.24,3.24c1.79,0,3.24-1.45,3.24-3.24c0-1.79-1.45-3.24-3.24-3.24
		S19.24,24.92,19.24,26.71z"/>
</g>
</svg>
