<?xml version="1.0" encoding="utf-8"?>
<!-- Generator: Adobe Illustrator 23.0.2, SVG Export Plug-In . SVG Version: 6.00 Build 0)  -->
<svg version="1.1" id="Layer_1" xmlns="http://www.w3.org/2000/svg" xmlns:xlink="http://www.w3.org/1999/xlink" x="0px" y="0px"
	 viewBox="0 0 90 33.98" style="enable-background:new 0 0 90 33.98;" xml:space="preserve">
<style type="text/css">
	.st0{fill:#FFFFFF;}
</style>
<g>
	<path class="st0" d="M18.03,30.61c-3.24,0-5.87-2.64-5.87-5.87c0-3.24,2.64-5.87,5.87-5.87c3.24,0,5.87,2.64,5.87,5.87
		C23.9,27.97,21.27,30.61,18.03,30.61z M18.03,20.82c-2.16,0-3.91,1.76-3.91,3.91c0,2.16,1.76,3.91,3.91,3.91
		c2.16,0,3.91-1.76,3.91-3.91C21.95,22.57,20.19,20.82,18.03,20.82z"/>
	<path class="st0" d="M71.34,30.61c-3.24,0-5.87-2.64-5.87-5.87c0-3.24,2.64-5.87,5.87-5.87c3.24,0,5.87,2.64,5.87,5.87
		C77.22,27.97,74.58,30.61,71.34,30.61z M71.34,20.82c-2.16,0-3.91,1.76-3.91,3.91c0,2.16,1.76,3.91,3.91,3.91
		c2.16,0,3.91-1.76,3.91-3.91C75.26,22.57,73.5,20.82,71.34,20.82z"/>
	<path class="st0" d="M89.32,16.84c-0.16-1.3-1.07-4.63-1.07-4.63c-0.25-0.69-0.11-1.68-1.72-1.92c-2.39-0.36-7.55-0.89-7.55-0.89
		s-7.64-3.33-11.32-4.57c-3.69-1.24-9.33-1.76-16.21-1.76c-6.89,0-9.07,0.43-13.67,1.4c-4.6,0.98-16.14,7.06-16.14,7.06
		c-2.4,0-8.46,1.13-12.73,1.91C0.03,15.06,0,19.71,0,21.23s0,4.39,1.44,4.83c0.84,0.26,4.59,0.48,9.01,0.65
		c-0.16-0.63-0.25-1.29-0.25-1.98c0-4.32,3.51-7.83,7.83-7.83c4.32,0,7.83,3.51,7.83,7.83c0,0.81-0.12,1.59-0.35,2.32h0.33
		c5.66,0,33.15-0.39,37.91-0.39c-0.16-0.62-0.24-1.26-0.24-1.93c0-4.32,3.51-7.83,7.83-7.83s7.83,3.51,7.83,7.83
		c0,0.36-0.03,0.72-0.07,1.07c2.74-0.05,5.73-0.56,7.29-1.07c1.66-0.55,2.79-2.62,3.43-4.07C90.38,19.38,89.48,18.14,89.32,16.84
		L89.32,16.84z M67.43,9.27c-0.34,0.88-0.55,1.81-3.02,1.83c-2.79,0.02-13.18,0.25-17.52,0.29c-4.65,0.05-19.48,1.03-19.48,1.03
		c3.04-2.62,7.95-5.68,12.92-6.75c5.35-1.16,7.93-0.99,10.82-0.99c3.88,0,10.93,0.74,14.06,1.74C68.43,7.43,67.77,8.39,67.43,9.27
		L67.43,9.27z"/>
</g>
</svg>
