<?xml version="1.0" encoding="utf-8"?>
<!-- Generator: Adobe Illustrator 23.0.2, SVG Export Plug-In . SVG Version: 6.00 Build 0)  -->
<svg version="1.1" id="Layer_1" xmlns="http://www.w3.org/2000/svg" xmlns:xlink="http://www.w3.org/1999/xlink" x="0px" y="0px"
	 viewBox="0 0 90 33.98" style="enable-background:new 0 0 90 33.98;" xml:space="preserve">
<style type="text/css">
	.st0{fill:#FFFFFF;}
	.st1{fill:none;}
</style>
<g>
	<path class="st0" d="M16,21.74c2.86,0,5.18,2.32,5.18,5.18c0,2.85-2.32,5.18-5.18,5.18c-2.86,0-5.18-2.32-5.18-5.18
		C10.82,24.06,13.15,21.74,16,21.74 M16,19.86c-3.9,0-7.06,3.16-7.06,7.06c0,3.9,3.16,7.06,7.06,7.06s7.06-3.16,7.06-7.06
		C23.06,23.02,19.9,19.86,16,19.86L16,19.86z"/>
	<path class="st0" d="M73.26,21.74c2.86,0,5.18,2.32,5.18,5.18c0,2.85-2.32,5.18-5.18,5.18c-2.86,0-5.18-2.32-5.18-5.18
		C68.08,24.06,70.4,21.74,73.26,21.74 M73.26,19.86c-3.9,0-7.06,3.16-7.06,7.06c0,3.9,3.16,7.06,7.06,7.06
		c3.9,0,7.06-3.16,7.06-7.06C80.32,23.02,77.16,19.86,73.26,19.86L73.26,19.86z"/>
	<path class="st1" d="M75.71,7.04c-0.75-0.69-2.39-2.95-5.34-4.14c-2.95-1.19-7.09-1.13-12.05-1.19c-4.96-0.06-13.94,0.5-16.14,1.07
		c-2.2,0.56-9.67,5.4-13.31,9.48c0,0,17.77-1,23.93-1.26c6.16-0.25,19.52-1.19,22.28-1.57C77.85,9.05,76.47,7.73,75.71,7.04z"/>
	<path class="st0" d="M89.09,18.98c-0.21-0.92-0.27-2.9-0.31-4.31c-0.05-2.07,0.1-2.83-2.35-5.09c-2.45-2.26-6.54-5.68-6.54-5.68
		c0.22-0.78-0.05-1.37-0.05-1.37c0.79-0.51,1.01-1.06,1.01-1.06C64.73-0.6,45.01-0.46,39.4,1.71c-4.65,1.79-13.09,8.47-13.09,8.47
		c-7.94-0.03-12.71,1.32-15.6,2.21C8.74,13,0.75,15.94,0.33,18.15c-0.25,1.3-0.21,1.77,0.09,4.3C0.54,23.39,0,23.04,0,23.36
		c0,3.45,5.38,5.19,7.12,5.76c0.07,0.02,0.15,0.05,0.22,0.07c-0.19-0.73-0.29-1.49-0.29-2.27c0-4.93,4.01-8.95,8.94-8.95
		s8.95,4.01,8.95,8.95c0,0.68-0.08,1.35-0.22,1.98c0.12-0.01,0.24-0.01,0.35-0.02c6.03-0.25,33.24-0.61,39.03-0.56
		c0.1,0,0.2,0,0.31,0c-0.07-0.46-0.11-0.93-0.11-1.4c0-4.93,4.01-8.95,8.94-8.95c4.93,0,8.95,4.01,8.95,8.95c0,0.15,0,0.3-0.01,0.45
		c2.34-0.29,4.19-0.65,5.04-1.1c2.05-1.06,2.77-2.8,2.77-5.2C90,19.99,89.23,19.59,89.09,18.98z M75.08,9.43
		C72.32,9.8,58.96,10.75,52.81,11c-6.16,0.25-23.93,1.26-23.93,1.26c3.64-4.08,11.11-8.91,13.31-9.47s11.17-1.13,16.14-1.07
		c4.96,0.06,9.1,0,12.05,1.19c2.95,1.19,4.58,3.45,5.34,4.14C76.47,7.73,77.85,9.05,75.08,9.43z"/>
</g>
</svg>
