<?xml version="1.0" encoding="utf-8"?>
<!-- Generator: Adobe Illustrator 22.1.0, SVG Export Plug-In . SVG Version: 6.00 Build 0)  -->
<svg version="1.1" id="Layer_1" xmlns="http://www.w3.org/2000/svg" xmlns:xlink="http://www.w3.org/1999/xlink" x="0px" y="0px"
	 viewBox="0 0 29.5 29.5" style="enable-background:new 0 0 29.5 29.5;" xml:space="preserve">
<style type="text/css">
	.st0{fill:#FFFFFF;}
</style>
<path class="st0" d="M14.7,1.2c3.5,0,6.9,1.3,9.6,4c5.3,5.3,5.3,13.9,0,19.1c-2.6,2.6-6.1,4-9.6,4s-6.9-1.3-9.6-4
	c-5.3-5.3-5.3-13.9,0-19.1C7.8,2.5,11.3,1.2,14.7,1.2 M14.7,0C10.8,0,7.1,1.5,4.3,4.3C1.5,7.1,0,10.8,0,14.7c0,3.9,1.5,7.6,4.3,10.4
	c2.8,2.8,6.5,4.3,10.4,4.3s7.6-1.5,10.4-4.3c2.8-2.8,4.3-6.5,4.3-10.4c0-3.9-1.5-7.6-4.3-10.4C22.4,1.5,18.7,0,14.7,0L14.7,0z"/>
<path class="st0" d="M14.7,28.3c7.5,0,13.5-6.1,13.5-13.5H1.2C1.2,22.2,7.3,28.3,14.7,28.3z"/>
</svg>
