<?xml version="1.0" encoding="utf-8"?>
<!-- Generator: Adobe Illustrator 22.1.0, SVG Export Plug-In . SVG Version: 6.00 Build 0)  -->
<svg version="1.1" id="Layer_1" xmlns="http://www.w3.org/2000/svg" xmlns:xlink="http://www.w3.org/1999/xlink" x="0px" y="0px"
	 viewBox="0 0 29.5 29.5" style="enable-background:new 0 0 29.5 29.5;" xml:space="preserve">
<style type="text/css">
	.st0{fill:#FFFFFF;}
</style>
<path class="st0" d="M25.2,4.3C22.4,1.6,18.7,0,14.8,0S7.1,1.6,4.3,4.3C1.6,7.1,0,10.8,0,14.8s1.5,7.6,4.3,10.4
	c2.8,2.8,6.5,4.3,10.4,4.3s7.6-1.5,10.4-4.3c2.8-2.8,4.3-6.5,4.3-10.4S27.9,7.1,25.2,4.3z M5.2,5.2c2.6-2.6,6.1-4,9.6-4
	s6.9,1.3,9.6,4c3.5,3.5,4.7,8.5,3.5,13.1c-5.8,0.1-8.5-9.3-8.5-9.3s-2.7,9.3-9,9.3c-4.6,0-8.4-3.5-8.5-7.8C2.6,8.6,3.6,6.7,5.2,5.2z
	"/>
</svg>
