<?xml version="1.0" encoding="utf-8"?>
<!-- Generator: Adobe Illustrator 22.1.0, SVG Export Plug-In . SVG Version: 6.00 Build 0)  -->
<svg version="1.1" id="Layer_1" xmlns="http://www.w3.org/2000/svg" xmlns:xlink="http://www.w3.org/1999/xlink" x="0px" y="0px"
	 viewBox="0 0 29.5 29.5" style="enable-background:new 0 0 29.5 29.5;" xml:space="preserve">
<style type="text/css">
	.st0{fill:#FFFFFF;}
</style>
<path class="st0" d="M25.2,4.3C22.4,1.6,18.7,0,14.8,0C10.8,0,7.1,1.6,4.3,4.3C1.6,7.1,0,10.8,0,14.8s1.5,7.6,4.3,10.4
	c2.8,2.8,6.5,4.3,10.4,4.3c3.9,0,7.6-1.5,10.4-4.3c2.8-2.8,4.3-6.5,4.3-10.4S27.9,7.1,25.2,4.3z M5.2,5.2c2.6-2.6,6.1-4,9.6-4
	c3.5,0,6.9,1.3,9.6,4c3.2,3.2,4.5,7.7,3.8,11.8c-1.6-0.3-2.5-1.4-3.5-2.6c-1.2-1.4-2.5-3-5.1-3s-3.9,1.6-5.1,3
	c-1.1,1.4-2.2,2.7-4.3,2.7c-2.1,0-3.2-1.3-4.3-2.7c-1-1.2-2.1-2.6-4.1-2.9C2.2,9.2,3.4,7,5.2,5.2z"/>
</svg>
