<?xml version="1.0" encoding="utf-8"?>
<!-- Generator: Adobe Illustrator 23.0.2, SVG Export Plug-In . SVG Version: 6.00 Build 0)  -->
<svg version="1.1" id="Layer_1" xmlns="http://www.w3.org/2000/svg" xmlns:xlink="http://www.w3.org/1999/xlink" x="0px" y="0px"
	 viewBox="0 0 62.23 62.23" style="enable-background:new 0 0 62.23 62.23;" xml:space="preserve">
<style type="text/css">
	.st0{fill:#BAC529;}
</style>
<path class="st0" d="M56.42,41.27v8.64c-0.01,6.79-5.53,12.32-12.32,12.32H12.33C5.53,62.22,0.01,56.7,0,49.9l0-31.77
	C0.01,11.34,5.53,5.81,12.32,5.81h8.64c1.2,0,2.18,0.97,2.18,2.18c0,1.2-0.97,2.18-2.18,2.18h-8.64c-4.37,0.01-7.97,3.61-7.98,7.98
	v31.77c0.01,4.37,3.61,7.97,7.98,7.98H44.1c4.37-0.01,7.97-3.61,7.98-7.98v-8.64c0-1.2,0.97-2.18,2.18-2.18
	C55.45,39.09,56.43,40.06,56.42,41.27L56.42,41.27z M62.23,2.18l-0.64-1.54L60.05,0H42.56c-1.2,0-2.18,0.97-2.18,2.18
	c0,1.2,0.97,2.18,2.18,2.18H54.8L33.28,25.87c-0.85,0.85-0.85,2.23,0,3.07c0.85,0.85,2.23,0.85,3.07,0L57.87,7.43v12.24
	c0,1.2,0.97,2.18,2.18,2.18c1.2,0,2.18-0.97,2.18-2.18L62.23,2.18z"/>
</svg>
