<?xml version="1.0" encoding="utf-8"?>
<!-- Generator: Adobe Illustrator 23.0.2, SVG Export Plug-In . SVG Version: 6.00 Build 0)  -->
<svg version="1.1" id="Layer_1" xmlns="http://www.w3.org/2000/svg" xmlns:xlink="http://www.w3.org/1999/xlink" x="0px" y="0px"
	 viewBox="0 0 31.31 30.72" style="enable-background:new 0 0 31.31 30.72;" xml:space="preserve">
<style type="text/css">
	.st0{fill:#FFFFFF;}
</style>
<g>
	<path class="st0" d="M18.24,15.7l2.49-2.49c0,0,0.01-0.01,0.01-0.01c1.82,0.69,3.96,0.3,5.43-1.17c1.5-1.5,1.87-3.7,1.12-5.56
		l-2.28,2.28c-0.77,0.77-1.79,0.54-2.57-0.23c-0.77-0.77-1.01-1.79-0.23-2.57l2.28-2.28c-1.85-0.76-4.05-0.38-5.56,1.12
		c-1.47,1.47-1.85,3.6-1.16,5.43c0,0-0.01,0.01-0.01,0.01l-3.25,3.25L5.8,4.77c-0.39-0.39-1.02-0.39-1.41,0s-0.39,1.02,0,1.41
		l8.71,8.71l-8.93,8.93c-0.82,0.82-0.82,2.15,0,2.98c0.82,0.82,2.15,0.82,2.98,0l8.16-8.16l8.16,8.16c0.81,0.81,2.13,0.81,2.95,0
		c0.81-0.81,0.81-2.13,0-2.95L18.24,15.7z"/>
	<path class="st0" d="M6.52,8.8c-0.48,0-0.96-0.18-1.33-0.55L3.48,6.54c-0.74-0.74-0.74-1.93,0-2.66c0.74-0.74,1.93-0.74,2.66,0
		l1.71,1.71c0.74,0.74,0.74,1.93,0,2.66C7.48,8.62,7,8.8,6.52,8.8z"/>
</g>
</svg>
