<svg fill="#FFFFFF" xmlns:dc="http://purl.org/dc/elements/1.1/" xmlns:cc="http://creativecommons.org/ns#" xmlns:rdf="http://www.w3.org/1999/02/22-rdf-syntax-ns#" xmlns:svg="http://www.w3.org/2000/svg" xmlns="http://www.w3.org/2000/svg" xmlns:sodipodi="http://sodipodi.sourceforge.net/DTD/sodipodi-0.dtd" xmlns:inkscape="http://www.inkscape.org/namespaces/inkscape" version="1.1" x="0px" y="0px" viewBox="0 0 100 100"><g transform="translate(0,-952.36218)"><path style="color:#000000;enable-background:accumulate;" d="m 82.91382,968.86219 c -2.71606,2.6055 -6.51223,3.46583 -10.21037,4.64326 -4.65292,1.31332 -10.27043,2.61513 -16.04932,4.45627 -0.58752,2.28616 -0.60591,4.15157 -0.78061,6.76233 -0.55384,-2.89305 -0.71212,-4.76004 -0.40592,-6.38837 -0.73129,0.24148 -1.45233,0.51884 -2.1857,0.77907 -13.88243,4.92605 -27.71617,13.29597 -31.16192,32.78325 0.0212,1.0378 0.19289,2.1499 0.71816,3.1163 0.57392,0.557 0.08,1.7328 -0.71816,1.7139 l -2.46673,0 c 0.93467,0.861 1.9333,1.7022 3.49713,2.7735 -2.71097,4.9375 -5.07728,10.3603 -7.15038,16.3605 l 2.99754,-1.9944 c 1.38614,-4.3808 3.24876,-8.8481 5.68283,-13.3065 0.44117,-0.8081 0.89493,-1.6254 1.37388,-2.4307 -0.47432,0.8084 -0.9371,1.6198 -1.37388,2.4307 0.92704,0.5197 2.31219,1.0194 3.87183,1.2776 1.46131,0.242 2.99514,0.2478 4.43386,0.1247 l -3.52836,-3.5214 c -0.58661,-0.6254 0.13727,-1.8582 0.96796,-1.6516 3.41867,0.9704 5.90522,1.1702 9.11751,0.3427 3.2123,-0.8274 7.1545,-2.7915 13.14546,-6.2636 1.64122,-0.9784 6.63047,-4.0701 12.14628,-8.4452 -5.99573,-0.585 -7.46665,-0.1068 -13.73872,-2.80462 6.19566,1.27242 7.98722,1.08962 14.8628,1.90092 2.41837,-1.97242 4.8926,-4.16799 7.21283,-6.54419 4.01602,-4.11292 7.51605,-8.71788 9.39854,-13.43116 1.6868,-4.22336 1.98069,-8.46157 0.34346,-12.68326 z m -11.83403,12.71442 c -1.81058,0.70343 -3.54285,1.44947 -5.2457,2.21256 -17.46857,6.47772 -30.30849,16.12971 -39.65495,30.63303 -0.44506,0.6907 -0.88208,1.3751 -1.31142,2.0879 0.42319,-0.7111 0.87283,-1.3986 1.31142,-2.0879 10.2483,-16.10642 24.69702,-26.32785 44.90065,-32.84559 z" fill="#FFFFFF" stroke="none" marker="none" visibility="visible" display="inline" overflow="visible"></path></g></svg>