<?xml version="1.0" encoding="utf-8"?>
<!-- Generator: Adobe Illustrator 23.0.2, SVG Export Plug-In . SVG Version: 6.00 Build 0)  -->
<svg version="1.1" id="Layer_1" xmlns="http://www.w3.org/2000/svg" xmlns:xlink="http://www.w3.org/1999/xlink" x="0px" y="0px"
	 viewBox="0 0 31.31 30.72" style="enable-background:new 0 0 31.31 30.72;" xml:space="preserve">
<style type="text/css">
	.st0{fill:#FFFFFF;}
</style>
<g>
	<path class="st0" d="M4.12,30.71c-0.55,0-1-0.45-1-1V1c0-0.55,0.45-1,1-1s1,0.45,1,1v28.71C5.12,30.26,4.67,30.71,4.12,30.71z"/>
	<path class="st0" d="M16.19,30.72c-0.23,0-0.47-0.08-0.66-0.25c-4.38-3.81-6.89-9.32-6.89-15.11c0-5.8,2.51-11.31,6.89-15.11
		c0.42-0.36,1.05-0.32,1.41,0.1c0.36,0.42,0.32,1.05-0.1,1.41c-3.94,3.43-6.2,8.38-6.2,13.6s2.26,10.18,6.2,13.6
		c0.42,0.36,0.46,0.99,0.1,1.41C16.75,30.6,16.47,30.72,16.19,30.72z"/>
	<path class="st0" d="M30.31,14.19H18.7l2.12-2.12c0.39-0.39,0.39-1.02,0-1.41s-1.02-0.39-1.41,0l-3.83,3.83
		c-0.01,0.01-0.02,0.03-0.03,0.04c-0.03,0.04-0.06,0.08-0.09,0.12c-0.03,0.04-0.05,0.08-0.08,0.13c-0.01,0.01-0.02,0.03-0.02,0.04
		c-0.01,0.03-0.01,0.06-0.02,0.09c-0.01,0.05-0.03,0.1-0.04,0.15c-0.01,0.05-0.01,0.1-0.01,0.14c0,0.05,0,0.1,0.01,0.14
		c0.01,0.05,0.02,0.1,0.04,0.15c0.01,0.03,0.01,0.06,0.02,0.09c0.01,0.01,0.02,0.03,0.02,0.04c0.02,0.04,0.05,0.08,0.08,0.13
		c0.03,0.04,0.06,0.08,0.09,0.12c0.01,0.01,0.02,0.03,0.03,0.04l3.83,3.83c0.2,0.2,0.45,0.29,0.71,0.29s0.51-0.1,0.71-0.29
		c0.39-0.39,0.39-1.02,0-1.41l-2.12-2.12h11.6c0.55,0,1-0.45,1-1S30.86,14.19,30.31,14.19z"/>
</g>
</svg>
