<?xml version="1.0" encoding="utf-8"?>
<!-- Generator: Adobe Illustrator 23.0.2, SVG Export Plug-In . SVG Version: 6.00 Build 0)  -->
<svg version="1.1" id="Layer_1" xmlns="http://www.w3.org/2000/svg" xmlns:xlink="http://www.w3.org/1999/xlink" x="0px" y="0px"
	 viewBox="0 0 31.31 30.72" style="enable-background:new 0 0 31.31 30.72;" xml:space="preserve">
<style type="text/css">
	.st0{fill:#FFFFFF;}
</style>
<g>
	<path class="st0" d="M5.69,30.71c-0.55,0-1-0.45-1-1V1c0-0.55,0.45-1,1-1s1,0.45,1,1v28.71C6.69,30.26,6.24,30.71,5.69,30.71z"/>
	<path class="st0" d="M11.62,30.71c-0.55,0-1-0.45-1-1V1c0-0.55,0.45-1,1-1s1,0.45,1,1v28.71C12.62,30.26,12.17,30.71,11.62,30.71z"
		/>
	<path class="st0" d="M27.62,6.39c0-0.02-0.01-0.03-0.01-0.05c0-0.05-0.01-0.1-0.02-0.15s-0.02-0.1-0.04-0.14
		C27.54,6.04,27.54,6.02,27.54,6c-0.01-0.03-0.03-0.05-0.05-0.08c-0.02-0.05-0.05-0.09-0.08-0.13s-0.06-0.07-0.1-0.11
		c-0.03-0.03-0.07-0.07-0.11-0.1c-0.04-0.03-0.08-0.05-0.13-0.08c-0.02,0-0.04-0.02-0.07-0.03c-0.01-0.01-0.03-0.01-0.05-0.01
		c-0.05-0.02-0.09-0.03-0.14-0.04c-0.05-0.01-0.1-0.02-0.15-0.02c-0.02,0-0.03-0.01-0.05-0.01H21.2c-0.28,0-0.53,0.11-0.71,0.29
		c-0.18,0.18-0.29,0.43-0.29,0.71c0,0.55,0.45,1,1,1h3L17,14.6c-0.39,0.39-0.39,1.02,0,1.41l0,0l6.98,6.98
		c0.2,0.2,0.45,0.29,0.71,0.29s0.51-0.1,0.71-0.29c0.39-0.39,0.39-1.02,0-1.41l-6.28-6.28l6.5-6.5v3c0,0.55,0.45,1,1,1s1-0.45,1-1
		L27.62,6.39z"/>
</g>
</svg>
