<?xml version="1.0" encoding="utf-8"?>
<!-- Generator: Adobe Illustrator 23.0.2, SVG Export Plug-In . SVG Version: 6.00 Build 0)  -->
<svg version="1.1" id="Layer_1" xmlns="http://www.w3.org/2000/svg" xmlns:xlink="http://www.w3.org/1999/xlink" x="0px" y="0px"
	 viewBox="0 0 9.62 9.62" style="enable-background:new 0 0 9.62 9.62;" xml:space="preserve">
<style type="text/css">
	.st0{fill:#FFFFFF;}
</style>
<path class="st0" d="M9.36,3.23C9.36,3.23,9.36,3.23,9.36,3.23c-0.18-0.5-0.43-0.96-0.74-1.36C8.3,1.46,7.93,1.11,7.51,0.83
	C7.18,0.61,6.81,0.42,6.4,0.27c-0.1-0.04-0.21-0.03-0.31,0.02c-0.1,0.05-0.17,0.14-0.2,0.25c-0.05,0.2,0.06,0.41,0.25,0.48
	c1.61,0.57,2.69,2.09,2.69,3.79c0,2.22-1.81,4.03-4.03,4.03c-2.22,0-4.03-1.81-4.03-4.03c0-1.49,0.84-2.87,2.16-3.56v1.06
	c0,0.22,0.18,0.4,0.4,0.4s0.4-0.18,0.4-0.4V0.4c0-0.22-0.18-0.4-0.4-0.4H1.25c-0.22,0-0.4,0.18-0.4,0.4s0.18,0.4,0.4,0.4h0.93
	C2.1,0.85,2.01,0.91,1.91,0.98c-0.4,0.3-0.74,0.65-1.01,1.03C0.31,2.83,0,3.8,0,4.81c0,0.63,0.13,1.26,0.38,1.87
	c0.24,0.58,0.58,1.08,1.03,1.53c0.45,0.45,0.96,0.79,1.53,1.03C3.52,9.5,4.15,9.62,4.81,9.62c0.63,0,1.26-0.13,1.87-0.37
	c0.57-0.24,1.08-0.59,1.53-1.03c0.45-0.45,0.79-0.96,1.03-1.53C9.5,6.1,9.62,5.47,9.62,4.81C9.62,4.28,9.54,3.74,9.36,3.23z"/>
</svg>
