<?xml version="1.0" encoding="utf-8"?>
<!-- Generator: Adobe Illustrator 22.1.0, SVG Export Plug-In . SVG Version: 6.00 Build 0)  -->
<svg version="1.1"
	 id="Layer_1" xmlns:cc="http://creativecommons.org/ns#" xmlns:dc="http://purl.org/dc/elements/1.1/" xmlns:inkscape="http://www.inkscape.org/namespaces/inkscape" xmlns:rdf="http://www.w3.org/1999/02/22-rdf-syntax-ns#" xmlns:sodipodi="http://sodipodi.sourceforge.net/DTD/sodipodi-0.dtd" xmlns:svg="http://www.w3.org/2000/svg"
	 xmlns="http://www.w3.org/2000/svg" xmlns:xlink="http://www.w3.org/1999/xlink" x="0px" y="0px" viewBox="0 0 100 100"
	 style="enable-background:new 0 0 100 100;" xml:space="preserve">
<style type="text/css">
	.st0{fill:#FFFFFF;}
</style>
<g transform="translate(0,-952.36217)">
	<path class="st0" d="M32,969.4c-4.3,0-7.8,3-8.8,7H16c-0.1,0-0.1,0-0.2,0c-1.1,0.1-2,1-1.9,2.1s1,2,2.1,1.9h7.2c0.9,4,4.5,7,8.8,7
		s7.8-3,8.8-7H84c1.1,0,2-0.9,2-2c0-1.1-0.9-2-2-2c0,0,0,0-0.1,0H40.8C39.8,972.4,36.3,969.4,32,969.4z M32,973.4c2.8,0,5,2.2,5,5
		s-2.2,5-5,5s-5-2.2-5-5S29.2,973.4,32,973.4z M68,993.4c-4.3,0-7.8,3-8.8,7H16c-0.1,0-0.1,0-0.2,0c-1.1,0.1-2,1-1.9,2.1
		s1,2,2.1,1.9h43.2c0.9,4,4.5,7,8.8,7s7.8-3,8.8-7H84c1.1,0,2-0.9,2-2c0-1.1-0.9-2-2-2c0,0,0,0-0.1,0h-7.2
		C75.8,996.4,72.3,993.4,68,993.4z M68,997.4c2.8,0,5,2.2,5,5c0,2.8-2.2,5-5,5s-5-2.2-5-5C63,999.6,65.2,997.4,68,997.4z M41,1017.4
		c-4.3,0-7.8,3-8.8,7H16c-0.1,0-0.1,0-0.2,0c-1.1,0.1-2,1-1.9,2.1c0.1,1.1,1,2,2.1,1.9c0,0,0,0,0,0h16.2c0.9,4,4.5,7,8.8,7
		s7.8-3,8.8-7H84c1.1,0,2-0.9,2-2s-0.9-2-2-2c0,0,0,0-0.1,0H49.8C48.8,1020.4,45.3,1017.4,41,1017.4z M41,1021.4c2.8,0,5,2.2,5,5
		c0,2.8-2.2,5-5,5s-5-2.2-5-5C36,1023.6,38.2,1021.4,41,1021.4z"/>
</g>
</svg>
