<svg id="Layer_1" data-name="Layer 1" xmlns="http://www.w3.org/2000/svg" viewBox="0 0 94.03 50.03"><defs><style>.cls-1{fill:#fff;stroke:#fff;stroke-miterlimit:10;stroke-width:6px;}</style></defs><title>arrow</title><path class="cls-1" d="M50.3,72a4.29,4.29,0,0,0,2.4-1l40-36A3.72,3.72,0,0,0,94,32.2a3.83,3.83,0,0,0-1-2.9A3.72,3.72,0,0,0,90.2,28a3.83,3.83,0,0,0-2.9,1L50,62.6,12.7,29a3.83,3.83,0,0,0-2.9-1A4.1,4.1,0,0,0,7,29.3a3.83,3.83,0,0,0-1,2.9A4.1,4.1,0,0,0,7.3,35l40,36A4.06,4.06,0,0,0,50.3,72Z" transform="translate(-2.98 -24.98)"/></svg>