<?xml version="1.0" encoding="utf-8"?>
<!-- Generator: Adobe Illustrator 19.2.1, SVG Export Plug-In . SVG Version: 6.00 Build 0)  -->
<svg version="1.1" id="layer" xmlns="http://www.w3.org/2000/svg" xmlns:xlink="http://www.w3.org/1999/xlink" x="0px" y="0px"
	 viewBox="0 0 652 652" style="enable-background:new 0 0 652 652;" xml:space="preserve">
<style type="text/css">
	.st0{fill:#BAC50D;}
</style>
<g>
	<path class="st0" d="M225.1,308.7v-18.3h-47.4v18.3h0v21.1c0,20.2,13.9,34.4,33.9,34.4h13.2v-1.1v-1.1v-14v-1.1V346h-13.2
		c-9.8,0-15.5-5.9-15.5-16.1v-21.1H225.1z"/>
	<path class="st0" d="M264.5,288.2c-21.6,0-39.2,17.4-39.2,38.7s17.6,38.7,39.2,38.7c21.6,0,39.2-17.4,39.2-38.7
		S286.2,288.2,264.5,288.2 M264.5,349.8c-12.6,0-22.9-10.3-22.9-22.9s10.3-22.9,22.9-22.9c12.6,0,22.8,10.3,22.8,22.9
		S277.1,349.8,264.5,349.8"/>
	<path class="st0" d="M496.6,365.6c-7.3,0-14.5-2.7-20-7.5c-4.6-4-10.1-11.5-10.1-24.1l0-43.7h7.1V334c0,18.1,13.8,24.6,23.1,24.6
		c9.3,0,23.1-6.6,23.1-24.6v-43.7h7.1l-0.1,43.7c0,12.6-5.5,20.1-10.1,24.1C511.1,362.9,503.8,365.6,496.6,365.6"/>
	<path class="st0" d="M150.4,290.3v34.5c0,15.4-11.6,19.5-17.8,19.5c-6.1,0-17.8-4.1-17.8-19.5v-34.5H93.9l0.1,34.5
		c0,15.8,7.1,25.4,13,30.5c7,6.1,16.3,9.6,25.6,9.6c9.3,0,18.7-3.5,25.6-9.6c5.9-5.2,13-14.7,13-30.5l0.1-34.5H150.4z"/>
	<path class="st0" d="M377,363.3l-0.1-39.1c0-14.2-6.3-22.8-11.6-27.4c-6.2-5.5-14.5-8.6-22.8-8.6c-8.3,0-16.6,3.1-22.8,8.6
		c-5.3,4.6-11.6,13.1-11.6,27.4v39.1h12.7l-0.1-39.1c0-18.5,14.2-23.3,21.7-23.3c7.5,0,21.7,4.9,21.7,23.3l-0.1,39.1H377z"/>
	<path class="st0" d="M611.4,288.4c-8.5,0-20.2,4.6-25.1,16.3c-4.9-11.7-16.6-16.3-25.1-16.3c-11,0-27.5,7.7-27.5,28.9v46h4.8v-46
		c0-17.8,13.6-24.2,22.7-24.2c9.1,0,22.6,6.4,22.7,24.1l0,0.1v46h0h4.8h0v-46l0-0.1c0.1-17.7,13.6-24.1,22.7-24.1
		c9.1,0,22.7,6.4,22.7,24.2v46h4.8v-46C638.9,296.1,622.5,288.4,611.4,288.4"/>
	<path class="st0" d="M460.3,331.1c2.1-19.5-11.4-38-31.1-42c-21-4.3-41.9,9.2-46.2,30.1c-4.3,20.9,9.6,41.4,30.7,45.7
		c19,3.9,37.9-6.8,44.5-24.3h-10.9c-5.9,11.2-18.5,17.8-31.6,15.1c-12.5-2.5-21.3-12.6-22.9-24.5L460.3,331.1z M427.3,298.4
		c12.2,2.5,20.8,12,22.8,23.5l-57.3,0.1l0.1-0.7C396.2,305.5,411.4,295.2,427.3,298.4"/>
	<path class="st0" d="M22.1,359.4c4.3,4,10.6,6.1,18.1,6.1c0.3,0,0.7,0,1,0c7.6-0.2,13.2-2,18.8-6.1l3.6-2.6l1.1-0.8l0,1.3l0,6.1
		h23.5l0-15.4l-0.1-31.6c0-1.4-0.1-2.8-0.3-4.1c-1-7.8-4.3-13.9-9.6-17.9c-5.6-4.2-13.6-6.3-23.8-6.3l-0.3,0
		c-10.7,0-18.7,1.7-24.3,5.3c-5.3,3.3-8.7,8.4-10.3,15.5l-0.8,3.4h24.1l0.1-0.5c0.6-4.6,4.4-7.5,10.2-7.5l0.7,0
		c0.6,0,1.1,0.1,1.6,0.1l0.1,0c2.4,0.4,4.4,1.2,5.6,2.5c1.2,1.3,1.8,2.9,1.5,4.6c-0.5,3.3-2.7,4.1-13.7,6.5l-0.6,0.1
		c-0.8,0.2-1.7,0.4-2.6,0.6c-1.9,0.4-3.7,0.8-5.5,1.2c-18.6,4.3-25.3,10.7-25,23.4C15.4,349.9,17.8,355.5,22.1,359.4 M47.3,334
		l15.2-4.9l0.9-0.3v0.9v11.3v0.3l-0.2,0.2l-2.2,1.8c-0.7,0.7-1.6,1.3-2.6,1.8c-3,1.8-5.9,2.6-9.3,2.8l-0.5,0c-4.3,0-7.1-2.5-7.3-6.6
		C41,337.6,42.8,335.5,47.3,334"/>
</g>
</svg>
