<?xml version="1.0" encoding="utf-8"?>
<!-- Generator: Adobe Illustrator 22.1.0, SVG Export Plug-In . SVG Version: 6.00 Build 0)  -->
<svg version="1.1" id="Layer_1" xmlns="http://www.w3.org/2000/svg" xmlns:xlink="http://www.w3.org/1999/xlink" x="0px" y="0px"
	 viewBox="0 0 105 105" style="enable-background:new 0 0 105 105;" xml:space="preserve">
<style type="text/css">
	.st0{fill:#FFFFFF;}
</style>
<path class="st0" d="M76.2,45.4c-0.4-0.6-1-1-1.7-1h-18v-30c0-0.9-0.6-1.7-1.5-1.9c-0.9-0.2-1.8,0.2-2.2,1l-24,44
	c-0.3,0.6-0.3,1.4,0,2c0.4,0.6,1,1,1.7,1h18v30c0,0.9,0.6,1.7,1.5,1.9c0.2,0,0.3,0.1,0.5,0.1c0.7,0,1.4-0.4,1.8-1l24-44
	C76.6,46.7,76.6,46,76.2,45.4L76.2,45.4z M52.5,82.6V58.4c0-1.1-0.9-2-2-2H33.9l18.6-34.2v24.2c0,1.1,0.9,2,2,2h16.6L52.5,82.6z"/>
</svg>
