<?xml version="1.0" encoding="utf-8"?>
<!-- Generator: Adobe Illustrator 22.1.0, SVG Export Plug-In . SVG Version: 6.00 Build 0)  -->
<svg version="1.1" id="Layer_1" xmlns="http://www.w3.org/2000/svg" xmlns:xlink="http://www.w3.org/1999/xlink" x="0px" y="0px"
	 viewBox="0 0 105 105" style="enable-background:new 0 0 105 105;" xml:space="preserve">
<style type="text/css">
	.st0{fill:#FFFFFF;}
</style>
<path class="st0" d="M48.7,28.7l-0.1,58h31.7c2.2,0,4-1.3,4-3.5v-5.5H86v7.4c0,1.1,1.1,1.6,2.2,1.6h8.1c0.5,0,1,0,1.4-0.4
	c4.8-4.7,6.6-14.9,6.8-23c0.2-10.6-2-19.1-6-23.2l0,0c-0.4-0.4-0.9-0.4-1.4-0.4h-8.9c-1.1,0-2.2,0.6-2.2,1.7v7.3h-2.7L72.2,32.3
	c-0.3-1.9-2-3.6-3.9-3.6H52.9 M68.3,32.7l12.1,18.8c0.4,0.5,1,1.2,1.6,1.2h5.9c1.1,0,1.8-1.4,1.8-2.5v-6.5h6.1
	c2.8,3,4.5,10.8,4.3,19.5l0,0C99.9,71.9,98,78.7,95,82.7h-5.4v-7.5c0-1.1-0.7-1.5-1.8-1.5h-5.9c-0.5,0-1-0.1-1.4,0.3
	c-0.4,0.4-0.6,0.6-0.6,1.1v7.6l-27.3,0.2V32.7H68.3z"/>
<g>
	<path class="st0" d="M19.1,85.3c-0.2,0-0.3,0-0.5-0.1c-0.8-0.2-1.4-1-1.4-1.8V58.7H2.6c-0.7,0-1.3-0.4-1.6-0.9
		c-0.3-0.6-0.4-1.3,0-1.9l19.8-36.5c0.3-0.6,1-1,1.7-1c0.2,0,0.3,0,0.5,0.1c0.8,0.2,1.4,1,1.4,1.8v24.6h14.7c0.7,0,1.3,0.4,1.6,0.9
		c0.3,0.6,0.4,1.3,0,1.9L20.8,84.3C20.5,84.9,19.8,85.3,19.1,85.3z M19.1,54.9c1.1,0,1.9,0.9,1.9,1.9v19l14.8-27.1H22.5
		c-1.1,0-1.9-0.9-1.9-1.9v-19L5.8,54.9H19.1z"/>
	<path class="st0" d="M22.5,18.7c0.1,0,0.3,0,0.4,0.1c0.7,0.2,1.2,0.8,1.2,1.6v24.8H39c0.6,0,1.1,0.3,1.4,0.8l0,0
		c0.3,0.5,0.3,1.1,0,1.6L20.6,84.2c-0.3,0.5-0.9,0.9-1.5,0.9c-0.1,0-0.3,0-0.4-0.1c-0.7-0.2-1.2-0.8-1.2-1.6V58.5H2.6
		c-0.6,0-1.1-0.3-1.4-0.8s-0.3-1.1,0-1.6L21,19.6C21.3,19,21.9,18.7,22.5,18.7 M5.3,55.2h13.8c0.9,0,1.7,0.7,1.7,1.7v20l15.4-28.3
		H22.5c-0.9,0-1.7-0.7-1.7-1.7v-20L5.3,55.2 M22.5,18.2L22.5,18.2c-0.8,0-1.5,0.4-1.9,1.1L0.7,55.8c-0.4,0.7-0.3,1.5,0,2.1
		C1.1,58.6,1.8,59,2.6,59H17v24.4c0,1,0.7,1.8,1.6,2.1c0.2,0,0.4,0.1,0.5,0.1c0.8,0,1.5-0.4,1.9-1.1L40.9,48c0.4-0.7,0.3-1.5,0-2.1
		c-0.4-0.7-1.1-1.1-1.9-1.1H24.6V20.4c0-1-0.7-1.8-1.6-2.1C22.8,18.2,22.6,18.2,22.5,18.2L22.5,18.2L22.5,18.2z M6.2,54.7l14.1-25.9
		v18.1c0,1.2,1,2.2,2.2,2.2h12.9L21.3,74.9V56.8c0-1.2-1-2.2-2.2-2.2H6.2V54.7z"/>
</g>
<path class="st0" d="M48.7,22.7H53h15c1.1,0,2-0.9,2-2c0-1.1-0.9-2-2-2H48.7"/>
</svg>
