<?xml version="1.0" encoding="utf-8"?>
<!-- Generator: Adobe Illustrator 22.1.0, SVG Export Plug-In . SVG Version: 6.00 Build 0)  -->
<svg version="1.1" id="Layer_1" xmlns="http://www.w3.org/2000/svg" xmlns:xlink="http://www.w3.org/1999/xlink" x="0px" y="0px"
	 viewBox="0 0 105 105" style="enable-background:new 0 0 105 105;" xml:space="preserve">
<style type="text/css">
	.st0{fill:#FFFFFF;}
</style>
<path class="st0" d="M93.6,39.8c-0.3-0.3-0.8-0.4-1.4-0.4h-8.9c-1.1,0-2.2,0.6-2.2,1.7v7.3h-2.7L67.5,32c-0.3-1.9-2-3.6-3.9-3.6
	H48.2v-6h15c1.1,0,2-0.9,2-2c0-1.1-0.9-2-2-2H29.1c-1.1,0-2,0.9-2,2c0,1.1,0.9,2,2,2h15.1v6H28.3c-2.2,0-4.1,1.9-4.1,4.1V33
	l-4.4,4.4h-4.6c-1.1,0-2,0.7-2,1.8v13.2h-4V37c0-1.1-0.9-2-2-2s-2,0.9-2,2v34.2c0,1.1,0.9,2,2,2s2-0.9,2-2V56.4h4v10.4
	c0,1.1,0.9,2.6,2,2.6h4.6l5,5.3l9.9,11.4c0.4,0.4,0.9,0.4,1.5,0.4h39.3c2.2,0,4-1.3,4-3.5v-5.5h1.7v7.4c0,1.1,1.1,1.6,2.2,1.6h8.1
	c0.5,0,1,0,1.4-0.4c4.8-4.7,6.6-14.9,6.8-23C99.8,52.4,97.6,43.9,93.6,39.8L93.6,39.8z M95.6,62.9c-0.1,8.7-2.1,15.5-5,19.5h-5.4
	v-7.5c0-1.1-0.7-1.5-1.8-1.5h-5.9c-0.5,0-1-0.1-1.4,0.3c-0.4,0.4-0.6,0.6-0.6,1.1v7.6H37.2l-9.4-10.9l-5.6-5.8
	c-0.4-0.5-1-0.3-1.5-0.3h-3.5v-24h3.4c0.5,0,1-0.3,1.4-0.6l5.7-5.4c0.4-0.4,0.6-0.9,0.6-1.5v-1.5h35.4c0,0,0.1,0.8,0.3,1.2
	l11.8,17.7c0.4,0.5,1,1.2,1.6,1.2h5.9c1.1,0,1.8-1.4,1.8-2.5v-6.6h6.1C94.1,46.4,95.8,54.2,95.6,62.9L95.6,62.9z"/>
</svg>
