<?xml version="1.0" encoding="utf-8"?>
<!-- Generator: Adobe Illustrator 23.0.2, SVG Export Plug-In . SVG Version: 6.00 Build 0)  -->
<svg version="1.1" id="Layer_1" xmlns="http://www.w3.org/2000/svg" xmlns:xlink="http://www.w3.org/1999/xlink" x="0px" y="0px"
	 viewBox="0 0 97.92 97.51" style="enable-background:new 0 0 97.92 97.51;" xml:space="preserve">
<style type="text/css">
	.st0{fill:#FFFFFF;}
</style>
<g>
	<path class="st0" d="M55.87,9.79c0-1.35-1.04-2.39-2.29-2.5h-0.62c-1.66,0-6.14,0.21-11.34,1.77c-2.6,0.73-5.41,1.88-8.01,3.54
		c-2.71,1.66-5.2,3.85-7.29,6.77c-0.31,0.42-0.42,0.94-0.42,1.35c0,0.73,0.31,1.46,0.94,1.88c0.42,0.31,0.94,0.42,1.35,0.42
		c0.73,0,1.46-0.31,1.88-0.94c1.66-2.29,3.75-4.06,5.93-5.52c3.33-2.08,7.07-3.23,10.2-3.85c3.12-0.62,5.72-0.73,6.77-0.73h0.42
		h0.21C54.84,12.08,55.87,11.04,55.87,9.79L55.87,9.79z"/>
	<path class="st0" d="M21.54,17.38c0.42,0.31,0.94,0.52,1.46,0.52c0.73,0,1.46-0.31,1.88-0.94c4.27-5.72,10.09-8.74,15.5-10.41
		c5.31-1.66,10.2-1.88,12.18-1.88h0.73h0.31c1.25,0,2.29-0.94,2.39-2.18V2.39c0-1.25-0.94-2.29-2.18-2.39h-1.25
		c-2.29,0-7.6,0.21-13.63,2.08c-6.04,1.87-12.8,5.41-17.9,12.07c-0.31,0.42-0.52,0.94-0.52,1.46C20.6,16.14,20.91,16.86,21.54,17.38
		L21.54,17.38z"/>
	<path class="st0" d="M90.11,50.27c0-1.77-0.11-2.91-0.21-3.02c-0.21-1.14-1.14-1.98-2.29-1.98H87.3c-1.14,0.21-1.98,1.14-1.98,2.29
		v0.21v0.11v0.11c0,0,0.11,0.83,0.11,2.29c0,2.18-0.31,5.62-1.56,9.57c-1.35,3.95-3.64,8.43-7.8,12.59
		c-0.42,0.42-0.73,1.04-0.73,1.66s0.21,1.25,0.73,1.66c0.42,0.42,1.04,0.73,1.66,0.73s1.25-0.21,1.66-0.73
		c4.79-4.79,7.49-9.89,8.95-14.47C89.8,56.82,90.11,52.87,90.11,50.27L90.11,50.27z"/>
	<path class="st0" d="M75.96,58.7c0-1.98-0.73-3.95-2.18-5.41l-0.52-0.52c-0.73-0.73-1.56-1.25-2.5-1.66l1.14-1.14
		c1.66-1.66,2.5-3.85,2.6-6.04v-0.11c0-2.18-0.83-4.47-2.6-6.14c-0.73-0.73-1.56-1.25-2.5-1.66c1.14-1.35,1.77-3.12,1.77-4.79v-0.11
		v-0.11c0-1.88-0.73-3.85-2.18-5.31l-1.36-1.35c-1.46-1.46-3.43-2.18-5.41-2.18c-1.66,0-3.23,0.52-4.58,1.56
		c-0.42-0.94-0.94-1.77-1.66-2.5c-1.46-1.46-3.43-2.18-5.41-2.18s-3.95,0.73-5.41,2.18L26.64,39.65c0.42-1.35,0.73-2.6,0.73-3.95
		c0-1.77-0.52-3.54-1.56-5.1c-1.04-1.56-2.6-2.71-4.47-3.54h-0.11l-0.21-0.11c-0.42-0.11-0.83-0.21-1.35-0.21
		c-1.46,0-2.91,0.83-3.64,2.18c-0.21,0.31-3.02,5.31-6.24,11.55c-1.66,3.23-3.43,6.77-5,10.2c-1.56,3.43-2.91,6.66-3.75,9.47
		C0.93,60.36,0,63.38,0,67.85c0,2.81,0.42,6.35,1.77,9.99s3.54,7.6,7.18,11.13c3.12,3.12,6.66,5.31,10.2,6.66
		c3.54,1.35,7.07,1.88,10.41,1.88c3.54,0,6.87-0.62,9.57-1.56s5-2.18,6.45-3.64l28.1-28.1C75.13,62.55,75.86,60.67,75.96,58.7
		L75.96,58.7z M20.71,91.06c-2.91-1.14-5.83-2.81-8.53-5.52c-3.12-3.12-5-6.35-6.14-9.47c-1.14-3.02-1.46-5.93-1.46-8.43
		c0-1.88,0.21-3.54,0.42-4.58c0.11-0.52,0.21-0.94,0.31-1.25c0-0.11,0.11-0.21,0.11-0.31V61.4c0.73-2.39,1.98-5.52,3.54-8.84
		c2.29-5,5-10.3,7.18-14.47c1.14-2.08,2.08-3.75,2.71-5c0.31-0.62,0.62-1.04,0.83-1.46c0-0.11,0.11-0.11,0.11-0.21
		c0.94,0.52,1.56,1.04,1.98,1.66c0.52,0.73,0.73,1.46,0.73,2.39c0,1.14-0.31,2.5-1.14,4.06l-5,10.09c-0.21,0.31-0.21,0.73-0.21,1.04
		c0,0.73,0.31,1.46,1.04,1.98c0.42,0.31,0.94,0.42,1.35,0.42c0.62,0,1.25-0.21,1.66-0.73l28.1-28.1c0.62-0.52,1.25-0.83,2.08-0.83
		c0.73,0,1.46,0.31,2.08,0.83c0.52,0.52,0.83,1.25,0.83,2.08c0,0.73-0.31,1.46-0.83,2.08L31.53,49.54
		c-0.42,0.42-0.73,1.04-0.73,1.66s0.21,1.25,0.73,1.66c0.42,0.42,1.04,0.73,1.66,0.73s1.25-0.21,1.66-0.73l25.28-25.28
		c0.62-0.52,1.25-0.83,2.08-0.83c0.73,0,1.46,0.31,2.08,0.83l1.35,1.35c0.52,0.62,0.83,1.25,0.83,2.08c0,0.73-0.31,1.46-0.83,2.08
		l-4.47,4.47l-9.16,9.05L40.37,58.28c-0.42,0.42-0.73,1.04-0.73,1.66s0.21,1.25,0.73,1.66c0.42,0.42,1.04,0.73,1.66,0.73
		s1.25-0.21,1.66-0.73L64.41,40.9c0.62-0.52,1.25-0.83,2.08-0.83c0.73,0,1.46,0.31,2.08,0.83c0.83,0.83,1.14,1.77,1.14,2.81
		s-0.42,2.08-1.14,2.81l-6.14,6.25L47.24,67.85l-1.66,1.66c-0.42,0.42-0.73,1.04-0.73,1.66s0.21,1.25,0.73,1.66
		c0.42,0.42,1.04,0.73,1.66,0.73s1.25-0.21,1.66-0.73l16.75-16.75c0.62-0.52,1.25-0.83,2.08-0.83c0.73,0,1.46,0.31,2.08,0.83
		l0.52,0.52c0.52,0.62,0.83,1.25,0.83,2.08c0,0.73-0.31,1.46-0.83,2.08l-28.1,28.1c-0.31,0.31-0.94,0.83-1.77,1.25
		s-1.77,0.94-2.91,1.25c-2.29,0.73-5.1,1.25-8.12,1.25C26.64,92.62,23.62,92.2,20.71,91.06L20.71,91.06z"/>
	<path class="st0" d="M97.81,46.52c-0.21-1.14-1.14-1.98-2.29-1.98h-0.31c-1.14,0.21-1.98,1.14-1.98,2.29v0.21v0.21
		c0,0,0.11,0.83,0.11,2.29c0,2.39-0.31,6.45-2.08,11.34s-5,10.51-10.61,16.23c-0.42,0.42-0.73,1.04-0.73,1.66s0.21,1.25,0.73,1.66
		c0.42,0.42,1.04,0.73,1.66,0.73s1.25-0.21,1.66-0.73c6.14-6.14,9.68-12.49,11.66-18c1.98-5.52,2.29-10.09,2.29-12.9
		C97.92,47.77,97.81,46.73,97.81,46.52L97.81,46.52z"/>
</g>
</svg>
