<?xml version="1.0" encoding="utf-8"?>
<!-- Generator: Adobe Illustrator 23.0.3, SVG Export Plug-In . SVG Version: 6.00 Build 0)  -->
<svg version="1.1" id="Layer_1" xmlns="http://www.w3.org/2000/svg" xmlns:xlink="http://www.w3.org/1999/xlink" x="0px" y="0px"
	 viewBox="0 0 600 600" style="enable-background:new 0 0 600 600;" xml:space="preserve">
<style type="text/css">
	.st0{fill:#BAC73C;}
</style>
<g>
	<g>
		<path class="st0" d="M196.4,146.8v306.7h207.2V146.8H196.4z M392.7,442.5H207.2V157.7h185.5V442.5z"/>
	</g>
</g>
<g>
	<g>
		<path class="st0" d="M479,55c-1.8-3.5-5-6.1-8.8-7.4c-4.6-1.1-6.1-0.7-9-0.9l-57.6-2.8V16L359,53.5L403.6,91V60.7l57.6-2.8
			c6.4-0.4,7.7-0.7,9.4,1.8c0.4,0.4,0.7,1.1,0.7,1.8c0,0.4,0.2,2.4,0.4,3.5l0.7,7.7l3.1,53h0.9l3.1-53l0.7-7.7
			c0.2-1.5,0.4-2.2,0.4-4.4C480.4,58.5,479.9,56.5,479,55z"/>
	</g>
</g>
<g>
	<g>
		<path class="st0" d="M240.9,546.8l-44.7-37.5v30.2l-57.6,2.8c-6.4,0.4-7.7,0.7-9.4-1.8c-0.4-0.4-0.7-1.1-0.7-1.8
			c0-0.4-0.2-2.4-0.4-3.5l-0.7-7.7l-3.1-53h-0.8l-3.1,53l-0.7,7.7c-0.2,1.5-0.4,2.2-0.4,4.4c0.2,2,0.7,3.9,1.5,5.5
			c1.8,3.5,5,6.1,8.8,7.4c4.6,1.1,6.1,0.7,9,0.9l57.6,2.8V584L240.9,546.8z"/>
	</g>
</g>
</svg>
