<?xml version="1.0" encoding="utf-8"?>
<!-- Generator: Adobe Illustrator 23.0.2, SVG Export Plug-In . SVG Version: 6.00 Build 0)  -->
<svg version="1.1" id="Layer_1" xmlns="http://www.w3.org/2000/svg" xmlns:xlink="http://www.w3.org/1999/xlink" x="0px" y="0px"
	 viewBox="0 0 55.21 55.2" style="enable-background:new 0 0 55.21 55.2;" xml:space="preserve">
<style type="text/css">
	.st0{fill:#FFFFFF;}
</style>
<path class="st0" d="M31.8,27.6L54.2,5.1c1.2-1.2,1.2-3.1,0-4.2c-1.2-1.2-3.1-1.2-4.2,0L27.6,23.4L5.1,0.9C3.9-0.3,2-0.3,0.9,0.9
	c-1.2,1.2-1.2,3.1,0,4.2l22.4,22.5L0.9,50.1c-1.2,1.2-1.2,3.1,0,4.2c0.6,0.6,1.4,0.9,2.1,0.9c0.7,0,1.5-0.3,2.1-0.9l22.5-22.5
	l22.5,22.5c0.6,0.6,1.4,0.9,2.1,0.9c0.7,0,1.5-0.3,2.1-0.9c1.2-1.2,1.2-3.1,0-4.2L31.8,27.6z"/>
</svg>
