<?xml version="1.0" encoding="utf-8"?>
<!-- Generator: Adobe Illustrator 22.1.0, SVG Export Plug-In . SVG Version: 6.00 Build 0)  -->
<svg version="1.1" id="Layer_1" xmlns="http://www.w3.org/2000/svg" xmlns:xlink="http://www.w3.org/1999/xlink" x="0px" y="0px"
	 viewBox="0 0 29.5 29.5" style="enable-background:new 0 0 29.5 29.5;" xml:space="preserve">
<style type="text/css">
	.st0{fill:#FFFFFF;}
</style>
<path class="st0" d="M14.7,1.2c3.5,0,6.9,1.3,9.6,4c5.3,5.3,5.3,13.9,0,19.1c-2.6,2.6-6.1,4-9.6,4s-6.9-1.3-9.6-4
	c-5.3-5.3-5.3-13.9,0-19.1C7.8,2.5,11.3,1.2,14.7,1.2 M14.7,0C10.8,0,7.1,1.5,4.3,4.3C1.5,7.1,0,10.8,0,14.7c0,3.9,1.5,7.6,4.3,10.4
	c2.8,2.8,6.5,4.3,10.4,4.3s7.6-1.5,10.4-4.3c2.8-2.8,4.3-6.5,4.3-10.4c0-3.9-1.5-7.6-4.3-10.4C22.4,1.5,18.7,0,14.7,0L14.7,0z"/>
<g>
	<g>
		<path class="st0" d="M15,1.2c-1.4,0-2.9,0.2-4.3,0.6c0.4,1,0.1,2.2-0.8,3.2C8.7,6.2,7,6.3,6.1,5.4c-0.2-0.2-0.5-0.2-0.7,0
			s-0.2,0.5,0,0.7C6.3,7,6.1,8.8,4.9,9.9c-0.9,0.9-2.2,1.2-3.2,0.8c-0.4,1.4-0.6,2.8-0.6,4.2c0.7-1,0.9-2.1,0.7-3.1
			c0.2,0.1,0.5,0.1,0.7,0.1c1,0,2.1-0.4,3-1.3c1.1-1.1,1.5-2.5,1.2-3.7C7.1,7,7.3,7,7.6,7c1,0,2.1-0.4,3-1.3
			c1.1-1.1,1.5-2.5,1.2-3.7C12,2,12.3,2.1,12.5,2.1C13.4,2.1,14.2,1.8,15,1.2z"/>
	</g>
	<g>
		<path class="st0" d="M19.8,2.2c-0.1,0.7-0.4,1.3-1,1.9c-0.6,0.6-1.3,0.9-2,1c-0.7,0.1-1.3-0.1-1.8-0.6c-0.2-0.2-0.5-0.2-0.7,0
			s-0.2,0.5,0,0.7c0.4,0.4,0.6,1.1,0.6,1.8c-0.1,0.7-0.4,1.5-1,2s-1.3,0.9-2,1C11.1,10,10.5,9.8,10,9.4c-0.2-0.2-0.5-0.2-0.7,0
			s-0.2,0.5,0,0.7c0.4,0.4,0.6,1.1,0.6,1.8c-0.1,0.7-0.4,1.5-1,2s-1.3,0.9-2,1c-0.7,0.1-1.3-0.1-1.8-0.6c-0.2-0.2-0.5-0.2-0.7,0
			s-0.2,0.5,0,0.7c0.4,0.4,0.6,1.1,0.6,1.8c-0.1,0.7-0.4,1.5-1,2c-0.5,0.5-1.2,0.8-1.8,1c0.1,0.3,0.3,0.6,0.4,0.9
			c0.8-0.2,1.5-0.6,2.1-1.2c0.7-0.7,1.2-1.7,1.3-2.7c0-0.4,0-0.7-0.1-1.1c0.2,0.1,0.5,0.1,0.7,0.1c0.1,0,0.2,0,0.3,0
			c1-0.1,1.9-0.5,2.7-1.3s1.2-1.7,1.3-2.7c0-0.4,0-0.7-0.1-1.1c0.2,0.1,0.5,0.1,0.7,0.1c0.1,0,0.2,0,0.3,0c1-0.1,1.9-0.5,2.7-1.3
			S15.8,8,15.9,7c0-0.4,0-0.7-0.1-1.1C16,6,16.3,6,16.5,6c0.1,0,0.2,0,0.3,0c1-0.1,1.9-0.5,2.7-1.3c0.6-0.6,1-1.4,1.2-2.1
			C20.4,2.4,20.1,2.3,19.8,2.2z"/>
	</g>
	<g>
		<path class="st0" d="M23.2,4.2C23.2,4.2,23.2,4.2,23.2,4.2c1,1,0.8,2.7-0.4,3.8c-1.2,1.2-2.9,1.4-3.8,0.4c-0.2-0.2-0.5-0.2-0.7,0
			s-0.2,0.5,0,0.7c0.9,0.9,0.7,2.6-0.4,3.8c-1.2,1.2-2.9,1.4-3.8,0.4c-0.2-0.2-0.5-0.2-0.7,0s-0.2,0.5,0,0.7
			c0.9,0.9,0.7,2.6-0.4,3.8c-1.2,1.2-2.9,1.4-3.8,0.4c-0.2-0.2-0.5-0.2-0.7,0s-0.2,0.5,0,0.7c0.9,0.9,0.7,2.6-0.4,3.8
			c-1.1,1.1-2.7,1.3-3.7,0.5c0.3,0.3,0.5,0.6,0.9,0.9c0.2,0.2,0.4,0.3,0.6,0.5c1,0,2.1-0.5,2.9-1.3c1.1-1.1,1.5-2.5,1.2-3.7
			c0.2,0.1,0.5,0.1,0.7,0.1c1,0,2.1-0.4,3-1.3c1.1-1.1,1.5-2.5,1.2-3.7c0.2,0.1,0.5,0.1,0.7,0.1c1,0,2.1-0.4,3-1.3
			c1.1-1.1,1.5-2.5,1.2-3.7C20,10,20.2,10,20.5,10c1,0,2.1-0.4,3-1.3c0.9-0.9,1.3-2,1.3-3c-0.2-0.2-0.3-0.3-0.5-0.5
			C23.9,4.8,23.6,4.5,23.2,4.2z"/>
	</g>
	<g>
		<path class="st0" d="M27.6,10.7c-0.2,0.5-0.4,1-0.8,1.4c-0.6,0.6-1.3,0.9-2,1c-0.7,0.1-1.3-0.1-1.8-0.6c-0.2-0.2-0.5-0.2-0.7,0
			s-0.2,0.5,0,0.7c0.4,0.4,0.6,1.1,0.6,1.8c-0.1,0.7-0.4,1.5-1,2s-1.3,0.9-2,1c-0.7,0.1-1.3-0.1-1.8-0.6c-0.2-0.2-0.5-0.2-0.7,0
			s-0.2,0.5,0,0.7c0.4,0.4,0.6,1.1,0.6,1.8c-0.1,0.7-0.4,1.5-1,2s-1.3,0.9-2,1c-0.7,0.1-1.3-0.1-1.8-0.6c-0.2-0.2-0.5-0.2-0.7,0
			s-0.2,0.5,0,0.7c0.4,0.4,0.6,1.1,0.6,1.8c-0.1,0.7-0.4,1.5-1,2c-0.4,0.4-0.8,0.6-1.3,0.8c0.5,0.1,0.9,0.3,1.4,0.4
			c0.2-0.1,0.4-0.3,0.6-0.5c0.7-0.7,1.2-1.7,1.3-2.7c0-0.4,0-0.7-0.1-1.1c0.2,0.1,0.5,0.1,0.7,0.1c0.1,0,0.2,0,0.3,0
			c1-0.1,1.9-0.5,2.7-1.3s1.2-1.7,1.3-2.7c0-0.4,0-0.7-0.1-1.1c0.2,0.1,0.5,0.1,0.7,0.1c0.1,0,0.2,0,0.3,0c1-0.1,1.9-0.5,2.7-1.3
			s1.2-1.7,1.3-2.7c0-0.4,0-0.7-0.1-1.1C24,14,24.2,14,24.5,14c0.1,0,0.2,0,0.3,0c1-0.1,1.9-0.5,2.7-1.3c0.2-0.2,0.4-0.4,0.5-0.6
			C27.9,11.6,27.8,11.1,27.6,10.7z"/>
	</g>
	<g>
		<path class="st0" d="M28.1,17c-0.4-0.1-0.8-0.3-1.1-0.6c-0.2-0.2-0.5-0.2-0.7,0s-0.2,0.5,0,0.7c0.4,0.4,0.6,1.1,0.6,1.8
			c-0.1,0.7-0.4,1.5-1,2c-1.2,1.2-2.9,1.4-3.8,0.4c-0.2-0.2-0.5-0.2-0.7,0s-0.2,0.5,0,0.7c0.9,0.9,0.7,2.6-0.4,3.8
			c-0.6,0.6-1.3,0.9-2,1c-0.7,0.1-1.3-0.1-1.8-0.6c-0.2-0.2-0.5-0.2-0.7,0s-0.2,0.5,0,0.7c0.3,0.3,0.5,0.7,0.5,1.1
			c0.3-0.1,0.6-0.1,1-0.2c0,0,0-0.1,0-0.1c0.1,0,0.2,0,0.2,0c1.3-0.3,2.6-0.9,3.8-1.7c0.8-1,1.1-2.2,0.8-3.3
			c0.2,0.1,0.5,0.1,0.7,0.1c0.9,0,1.8-0.4,2.6-1c0.7-1.2,1.3-2.4,1.6-3.7c0-0.1,0-0.2,0-0.3c0,0,0.1,0,0.1,0
			C27.9,17.6,28,17.3,28.1,17z"/>
	</g>
</g>
</svg>
