<?xml version="1.0" encoding="utf-8"?>
<!-- Generator: Adobe Illustrator 22.1.0, SVG Export Plug-In . SVG Version: 6.00 Build 0)  -->
<svg version="1.1" id="Layer_1" xmlns="http://www.w3.org/2000/svg" xmlns:xlink="http://www.w3.org/1999/xlink" x="0px" y="0px"
	 viewBox="0 0 29.4 29.4" style="enable-background:new 0 0 29.4 29.4;" xml:space="preserve">
<style type="text/css">
	.st0{fill:#FFFFFF;}
</style>
<path class="st0" d="M16.8,25l-1.6,1.6v-8.9v-6V2.8l1.6,1.6c0.2,0.1,0.5,0.1,0.7-0.1c0.1-0.2,0.1-0.5-0.1-0.7L15,1.4
	c-0.1-0.1-0.2-0.1-0.3-0.1s-0.2,0-0.3,0.1L12,3.6c-0.2,0.2-0.3,0.5-0.1,0.7s0.5,0.3,0.7,0.1l1.6-1.6v8.9v6v8.9L12.6,25
	c-0.2-0.2-0.5-0.1-0.7,0.1c-0.2,0.2-0.1,0.5,0.1,0.7l2.4,2.2c0.1,0.1,0.2,0.1,0.3,0.1s0.2,0,0.3-0.1l2.4-2.2
	c0.2-0.2,0.2-0.5,0.1-0.7C17.3,24.9,17,24.9,16.8,25z"/>
<path class="st0" d="M25,12.6l1.6,1.6h-8.9h-6H2.8l1.6-1.6c0.1-0.2,0.1-0.5-0.1-0.7c-0.2-0.1-0.5-0.1-0.7,0.1l-2.2,2.4
	c-0.1,0.1-0.1,0.2-0.1,0.3s0,0.2,0.1,0.3l2.2,2.4c0.2,0.2,0.5,0.3,0.7,0.1s0.3-0.5,0.1-0.7l-1.6-1.6h8.9h6h8.9L25,16.8
	c-0.2,0.2-0.1,0.5,0.1,0.7c0.2,0.2,0.5,0.1,0.7-0.1L28,15c0.1-0.1,0.1-0.2,0.1-0.3s0-0.2-0.1-0.3L25.8,12c-0.2-0.2-0.5-0.2-0.7-0.1
	C24.9,12.1,24.9,12.4,25,12.6z"/>
</svg>
