<?xml version="1.0" encoding="utf-8"?>
<!-- Generator: Adobe Illustrator 22.1.0, SVG Export Plug-In . SVG Version: 6.00 Build 0)  -->
<svg version="1.1" id="Layer_1" xmlns="http://www.w3.org/2000/svg" xmlns:xlink="http://www.w3.org/1999/xlink" x="0px" y="0px"
	 viewBox="0 0 29.5 29.5" style="enable-background:new 0 0 29.5 29.5;" xml:space="preserve">
<style type="text/css">
	.st0{fill:#FFFFFF;}
</style>
<path class="st0" d="M14.7,1.2c7.5,0,13.5,6.1,13.5,13.5c0,7.5-6.1,13.5-13.5,13.5c-7.5,0-13.5-6.1-13.5-13.5
	C1.2,7.3,7.3,1.2,14.7,1.2 M14.7,0C6.6,0,0,6.6,0,14.7s6.6,14.7,14.7,14.7s14.7-6.6,14.7-14.7S22.9,0,14.7,0L14.7,0z"/>
<path class="st0" d="M14.5,1.2l0,1.6L8.2,2.9C7.7,3.2,7.3,3.4,6.9,3.7l-0.1,6.7l-4.9,0.1c-0.1,0.4-0.2,0.8-0.3,1.2L8,11.7l0.1-7.6
	L15.6,4l0-2.8C15.3,1.2,14.9,1.2,14.5,1.2z"/>
<g>
	<path class="st0" d="M18.1,6.5l-7.6,0.1l-0.1,7.6l-7.6,0.1l-0.1,6.9C3.2,21.8,3.6,22.4,4,23l0.1-7.6l7.6-0.1l0.1-7.6l7.6-0.1
		L19.3,2c-0.4-0.1-0.8-0.3-1.2-0.4L18.1,6.5z"/>
</g>
<g>
	<path class="st0" d="M23.1,4.1c-0.4-0.3-0.8-0.6-1.2-0.8l-0.1,7l-7.6,0.1l-0.1,7.6l-7.6,0.1l-0.1,7.5c0.4,0.3,0.8,0.6,1.2,0.8
		l0.1-7.2l7.6-0.1l0.1-7.6l7.6-0.1L23.1,4.1z"/>
</g>
<g>
	<path class="st0" d="M25.6,14L18,14l-0.1,7.6l-7.6,0.1l-0.1,5.8c0.4,0.1,0.8,0.3,1.2,0.4l0.1-5l7.6-0.1l0.1-7.6l7.6-0.1l0.1-6.5
		c-0.3-0.7-0.7-1.3-1.2-1.9L25.6,14z"/>
</g>
<g>
	<path class="st0" d="M27.9,17.7l-6.2,0.1l-0.1,7.6l-7.6,0.1l0,2.8c0.4,0,0.8,0,1.2,0l0-1.6l6.1-0.1c0.5-0.3,1-0.6,1.5-1l0.1-6.6
		l4.7,0C27.7,18.5,27.8,18.1,27.9,17.7z"/>
</g>
</svg>
