<?xml version="1.0" encoding="utf-8"?>
<!-- Generator: Adobe Illustrator 22.1.0, SVG Export Plug-In . SVG Version: 6.00 Build 0)  -->
<svg version="1.1" id="Layer_1" xmlns="http://www.w3.org/2000/svg" xmlns:xlink="http://www.w3.org/1999/xlink" x="0px" y="0px"
	 viewBox="0 0 29.5 29.5" style="enable-background:new 0 0 29.5 29.5;" xml:space="preserve">
<style type="text/css">
	.st0{fill:#FFFFFF;}
	.st1{fill:none;stroke:#FFFFFF;stroke-linecap:round;stroke-linejoin:round;stroke-miterlimit:10;}
</style>
<path class="st0" d="M25.3,15c0-0.1,0-0.2-0.1-0.3L23,12.2c-0.2-0.2-0.5-0.2-0.7-0.1s-0.2,0.5-0.1,0.7l1.6,1.6H4.9
	c-0.3,0-0.5,0.2-0.5,0.5c0,0.3,0.2,0.5,0.5,0.5h18.9l-1.6,1.6c-0.2,0.2-0.1,0.5,0.1,0.7c0.2,0.2,0.5,0.1,0.7-0.1l2.2-2.4
	C25.2,15.2,25.2,15.1,25.3,15z"/>
<line class="st1" x1="14.8" y1="20.9" x2="14.8" y2="28.1"/>
<line class="st1" x1="14.8" y1="1.8" x2="14.8" y2="9"/>
</svg>
