<?xml version="1.0" encoding="utf-8"?>
<!-- Generator: Adobe Illustrator 22.1.0, SVG Export Plug-In . SVG Version: 6.00 Build 0)  -->
<svg version="1.1" id="Layer_1" xmlns="http://www.w3.org/2000/svg" xmlns:xlink="http://www.w3.org/1999/xlink" x="0px" y="0px"
	 viewBox="0 0 29.5 29.5" style="enable-background:new 0 0 29.5 29.5;" xml:space="preserve">
<style type="text/css">
	.st0{fill:#FFFFFF;}
</style>
<path class="st0" d="M14.7,1.2c7.5,0,13.5,6.1,13.5,13.5c0,7.5-6.1,13.5-13.5,13.5S1.2,22.2,1.2,14.7C1.2,7.3,7.3,1.2,14.7,1.2
	 M14.7,0C6.6,0,0,6.6,0,14.7s6.6,14.7,14.7,14.7s14.7-6.6,14.7-14.7S22.9,0,14.7,0L14.7,0z"/>
<g>
	<g>
		<path class="st0" d="M23.5,19.3L19.7,23c-0.2,0.2-0.2,0.6,0,0.8c0.1,0.1,0.3,0.2,0.4,0.2s0.3-0.1,0.4-0.2l3.8-3.8
			c0.2-0.2,0.2-0.6,0-0.8S23.7,19,23.5,19.3z"/>
		<path class="st0" d="M17.3,20c0.2-0.2,0.2-0.6,0-0.8s-0.6-0.2-0.8,0l-4,4c-0.2,0.2-0.2,0.6,0,0.8c0.1,0.1,0.3,0.2,0.4,0.2
			s0.3-0.1,0.4-0.2L17.3,20z"/>
		<path class="st0" d="M20,17.3l4-4c0.2-0.2,0.2-0.6,0-0.8s-0.6-0.2-0.8,0l-4,4c-0.2,0.2-0.2,0.6,0,0.8c0.1,0.1,0.3,0.2,0.4,0.2
			S19.9,17.5,20,17.3z"/>
		<path class="st0" d="M9.5,19l-3.8,3.8c-0.2,0.2-0.2,0.6,0,0.8c0.1,0.1,0.3,0.2,0.4,0.2s0.3-0.1,0.4-0.2l3.8-3.8
			c0.2-0.2,0.2-0.6,0-0.8S9.8,18.7,9.5,19z"/>
		<path class="st0" d="M22.9,7.3c0.2-0.2,0.2-0.6,0-0.8s-0.6-0.2-0.8,0l-3.8,3.8c-0.2,0.2-0.2,0.6,0,0.8c0.1,0.1,0.3,0.2,0.4,0.2
			s0.3-0.1,0.4-0.2L22.9,7.3z"/>
		<path class="st0" d="M12.9,17.3l3.8-3.8c0.2-0.2,0.2-0.6,0-0.8s-0.6-0.2-0.8,0L12,16.5c-0.2,0.2-0.2,0.6,0,0.8
			c0.1,0.1,0.3,0.2,0.4,0.2S12.8,17.4,12.9,17.3z"/>
		<path class="st0" d="M12.1,10.3c0.1,0.1,0.3,0.2,0.4,0.2s0.3-0.1,0.4-0.2l4-4c0.2-0.2,0.2-0.6,0-0.8s-0.6-0.2-0.8,0l-4,4
			C11.9,9.7,11.9,10,12.1,10.3z"/>
		<path class="st0" d="M6.3,17l4-4c0.2-0.2,0.2-0.6,0-0.8s-0.6-0.2-0.8,0l-4,4c-0.2,0.2-0.2,0.6,0,0.8c0.1,0.1,0.3,0.2,0.4,0.2
			S6.1,17.1,6.3,17z"/>
		<path class="st0" d="M5.8,10.2l3.8-3.8c0.2-0.2,0.2-0.6,0-0.8S9,5.4,8.7,5.6L5,9.4C4.7,9.6,4.7,10,5,10.2c0.1,0.1,0.3,0.2,0.4,0.2
			S5.7,10.4,5.8,10.2z"/>
		<g>
			<path class="st0" d="M1.2,14.8l2.1-2.1c0.2-0.2,0.2-0.6,0-0.8s-0.6-0.2-0.8,0L1.3,13c-0.1,0.6-0.1,1.1-0.1,1.7
				C1.2,14.8,1.2,14.8,1.2,14.8z"/>
		</g>
		<g>
			<path class="st0" d="M14.7,1.2c-0.6,0-1.1,0-1.7,0.1l-1.8,1.8C11,3.3,11,3.7,11.2,4c0.1,0.1,0.3,0.2,0.4,0.2S12,4.1,12.1,4
				l2.7-2.7C14.8,1.2,14.8,1.2,14.7,1.2z"/>
		</g>
		<g>
			<path class="st0" d="M19.5,2.1l-0.6,0.6c-0.2,0.2-0.2,0.6,0,0.8c0.1,0.1,0.3,0.2,0.4,0.2s0.3-0.1,0.4-0.2l1-1
				C20.3,2.4,19.9,2.2,19.5,2.1z"/>
		</g>
		<g>
			<path class="st0" d="M26.9,8.8l-1,1c-0.2,0.2-0.2,0.6,0,0.8c0.1,0.1,0.3,0.2,0.4,0.2s0.3-0.1,0.4-0.2l0.7-0.7
				C27.2,9.6,27.1,9.2,26.9,8.8z"/>
		</g>
		<g>
			<path class="st0" d="M28.3,14.5L26,16.7c-0.2,0.2-0.2,0.6,0,0.8c0.1,0.1,0.3,0.2,0.4,0.2s0.3-0.1,0.4-0.2l1.3-1.3
				c0.1-0.5,0.1-1,0.1-1.5C28.3,14.7,28.3,14.6,28.3,14.5z"/>
		</g>
		<g>
			<path class="st0" d="M17.2,25.5l-2.7,2.7c0.1,0,0.2,0,0.2,0c0.5,0,1,0,1.5-0.1l1.8-1.8c0.2-0.2,0.2-0.6,0-0.8
				C17.8,25.3,17.4,25.3,17.2,25.5z"/>
		</g>
		<g>
			<path class="st0" d="M9.8,25.9l-1,1c0.4,0.2,0.8,0.4,1.2,0.5l0.7-0.7c0.2-0.2,0.2-0.6,0-0.8S10,25.7,9.8,25.9z"/>
		</g>
		<g>
			<path class="st0" d="M2.7,18.8l-0.7,0.7c0.2,0.4,0.3,0.8,0.5,1.2l1-1c0.2-0.2,0.2-0.6,0-0.8S3,18.6,2.7,18.8z"/>
		</g>
	</g>
</g>
</svg>
