<?xml version="1.0" encoding="utf-8"?>
<!-- Generator: Adobe Illustrator 22.1.0, SVG Export Plug-In . SVG Version: 6.00 Build 0)  -->
<svg version="1.1" id="Layer_1" xmlns="http://www.w3.org/2000/svg" xmlns:xlink="http://www.w3.org/1999/xlink" x="0px" y="0px"
	 viewBox="0 0 29.5 29.5" style="enable-background:new 0 0 29.5 29.5;" xml:space="preserve">
<style type="text/css">
	.st0{fill:#FFFFFF;}
</style>
<path class="st0" d="M14.7,1.2c7.5,0,13.5,6.1,13.5,13.5c0,7.5-6.1,13.5-13.5,13.5S1.2,22.2,1.2,14.7C1.2,7.3,7.3,1.2,14.7,1.2
	 M14.7,0C6.6,0,0,6.6,0,14.7s6.6,14.7,14.7,14.7s14.7-6.6,14.7-14.7S22.9,0,14.7,0L14.7,0z"/>
<g>
	<g>
		<path class="st0" d="M17.7,27.9c0.5-0.1,1-0.2,1.4-0.4c1.6-3.8,4.6-6.9,8.5-8.5c0.2-0.5,0.3-0.9,0.4-1.4
			C23.1,19.3,19.3,23.1,17.7,27.9z"/>
	</g>
	<path class="st0" d="M10,27.4c0.4,0.1,0.8,0.3,1.2,0.4c4.4-6.6,10.1-12.2,16.6-16.6c-0.1-0.4-0.2-0.8-0.4-1.2
		C20.5,14.6,14.6,20.5,10,27.4z"/>
	<path class="st0" d="M23.9,4.8L4.8,23.9c0.3,0.3,0.6,0.6,0.8,0.8L24.7,5.6C24.4,5.3,24.1,5,23.9,4.8z"/>
	<g>
		<path class="st0" d="M19.4,2c-0.4-0.1-0.8-0.3-1.2-0.4c-4.4,6.5-10,12.1-16.5,16.5C1.8,18.6,1.9,19,2,19.4
			C8.9,14.8,14.8,8.9,19.4,2z"/>
	</g>
	<g>
		<path class="st0" d="M12.2,1.4c-0.5,0.1-0.9,0.2-1.4,0.3C9.3,6,6,9.3,1.8,10.9c-0.1,0.5-0.2,0.9-0.3,1.4
			C6.6,10.6,10.6,6.6,12.2,1.4z"/>
	</g>
</g>
</svg>
