<?xml version="1.0" encoding="utf-8"?>
<!-- Generator: Adobe Illustrator 22.1.0, SVG Export Plug-In . SVG Version: 6.00 Build 0)  -->
<svg version="1.1" id="Layer_1" xmlns="http://www.w3.org/2000/svg" xmlns:xlink="http://www.w3.org/1999/xlink" x="0px" y="0px"
	 viewBox="0 0 29.5 29.5" style="enable-background:new 0 0 29.5 29.5;" xml:space="preserve">
<style type="text/css">
	.st0{fill:#FFFFFF;}
	.st1{fill:none;stroke:#FFFFFF;stroke-linecap:round;stroke-linejoin:round;stroke-miterlimit:10;}
</style>
<path class="st0" d="M14.8,8.7c-0.1,0-0.2,0-0.3,0.1L12.1,11c-0.2,0.2-0.2,0.5-0.1,0.7c0.2,0.2,0.5,0.2,0.7,0.1l1.6-1.6v14.9
	c0,0.3,0.2,0.5,0.5,0.5c0.3,0,0.5-0.2,0.5-0.5V10.2l1.6,1.6c0.2,0.2,0.5,0.1,0.7-0.1c0.2-0.2,0.1-0.5-0.1-0.7l-2.4-2.2
	C15,8.7,14.9,8.7,14.8,8.7z"/>
<line class="st1" x1="5.1" y1="4.5" x2="24.4" y2="4.5"/>
</svg>
