<?xml version="1.0" encoding="utf-8"?>
<!-- Generator: Adobe Illustrator 22.1.0, SVG Export Plug-In . SVG Version: 6.00 Build 0)  -->
<svg version="1.1" id="Layer_1" xmlns="http://www.w3.org/2000/svg" xmlns:xlink="http://www.w3.org/1999/xlink" x="0px" y="0px"
	 viewBox="0 0 29.5 29.5" style="enable-background:new 0 0 29.5 29.5;" xml:space="preserve">
<style type="text/css">
	.st0{fill:#FFFFFF;}
</style>
<path class="st0" d="M14.7,1.2c7.5,0,13.5,6.1,13.5,13.5c0,7.5-6.1,13.5-13.5,13.5c-7.5,0-13.5-6.1-13.5-13.5
	C1.2,7.3,7.3,1.2,14.7,1.2 M14.7,0C6.6,0,0,6.6,0,14.7s6.6,14.7,14.7,14.7s14.7-6.6,14.7-14.7S22.9,0,14.7,0L14.7,0z"/>
<g>
	<path class="st0" d="M11.2,1.7c0,0.6,0.1,1.2,0.3,1.7c0.3,1,0.4,1.7-0.1,2.1C10.9,6,10.3,5.9,9.3,5.6C8.3,5.3,7,5,6,6
		C5,7,5.4,8.2,5.6,9.3c0.3,1,0.4,1.7-0.1,2.1c-0.5,0.5-1.1,0.3-2.1,0.1c-0.5-0.1-1.1-0.3-1.7-0.3c-0.1,0.4-0.2,0.8-0.3,1.2
		c0.4-0.1,1,0,1.7,0.2c1,0.3,2.3,0.6,3.3-0.4c1-1,0.6-2.3,0.4-3.3c-0.3-1-0.4-1.7,0.1-2.1C7.3,6.4,8,6.5,9,6.8
		c1,0.3,2.3,0.6,3.3-0.4c1-1,0.6-2.3,0.4-3.3c-0.2-0.7-0.3-1.3-0.2-1.7C12,1.5,11.6,1.6,11.2,1.7z"/>
</g>
<g>
	<path class="st0" d="M21,2.8c0,0.2-0.1,0.3-0.3,0.5c-0.5,0.5-1.1,0.3-2.1,0.1c-1-0.3-2.3-0.6-3.3,0.4c-1,1-0.6,2.3-0.4,3.3
		c0.3,1,0.4,1.7-0.1,2.1c-0.5,0.5-1.1,0.3-2.1,0.1c-1-0.3-2.3-0.6-3.3,0.4c-1,1-0.6,2.3-0.4,3.3c0.3,1,0.4,1.7-0.1,2.1
		C8.6,15.4,8,15.3,7,15c-1-0.3-2.3-0.6-3.3,0.4c-1,1-0.6,2.3-0.4,3.3c0.3,1,0.4,1.7-0.1,2.1C3.1,20.9,2.9,21,2.8,21
		c0.2,0.4,0.4,0.7,0.6,1.1c0.2-0.1,0.5-0.2,0.7-0.5c1-1,0.6-2.3,0.4-3.3c-0.3-1-0.4-1.7,0.1-2.1c0.5-0.5,1.1-0.3,2.1-0.1
		c1,0.3,2.3,0.6,3.3-0.4c1-1,0.6-2.3,0.4-3.3c-0.3-1-0.4-1.7,0.1-2.1c0.5-0.5,1.1-0.3,2.1-0.1c1,0.3,2.3,0.6,3.3-0.4
		c1-1,0.6-2.3,0.4-3.3c-0.3-1-0.4-1.7,0.1-2.1c0.5-0.5,1.1-0.3,2.1-0.1c1,0.3,2.3,0.6,3.3-0.4c0.2-0.2,0.4-0.4,0.5-0.7
		C21.8,3.2,21.4,3,21,2.8z"/>
</g>
<g>
	<path class="st0" d="M25.7,6.8c-0.3-0.5-0.7-0.9-1.1-1.3c0.1,0.6,0.1,1-0.2,1.3c-0.5,0.5-1.1,0.3-2.1,0.1c-1-0.3-2.3-0.6-3.3,0.4
		c-1,1-0.6,2.3-0.4,3.3c0.3,1,0.4,1.7-0.1,2.1c-0.5,0.5-1.1,0.3-2.1,0.1c-1-0.3-2.3-0.6-3.3,0.4c-1,1-0.6,2.3-0.4,3.3
		c0.3,1,0.4,1.7-0.1,2.1c-0.5,0.5-1.1,0.3-2.1,0.1c-1-0.3-2.3-0.6-3.3,0.4c-1,1-0.6,2.3-0.4,3.3c0.3,1,0.4,1.7-0.1,2.1
		c-0.3,0.3-0.7,0.4-1.3,0.3c0.4,0.4,0.9,0.8,1.3,1.1c0.3-0.1,0.6-0.3,0.8-0.5c1-1,0.6-2.3,0.4-3.3c-0.3-1-0.4-1.7,0.1-2.1
		c0.5-0.5,1.1-0.3,2.1-0.1c1,0.3,2.3,0.6,3.3-0.4c1-1,0.6-2.3,0.4-3.3c-0.3-1-0.4-1.7,0.1-2.1c0.5-0.5,1.1-0.3,2.1-0.1
		c1,0.3,2.3,0.6,3.3-0.4c1-1,0.6-2.3,0.4-3.3c-0.3-1-0.4-1.7,0.1-2.1s1.1-0.3,2.1-0.1c1,0.3,2.3,0.6,3.3-0.4
		C25.4,7.4,25.6,7.1,25.7,6.8z"/>
</g>
<g>
	<path class="st0" d="M27.6,10.5c-0.4,0.2-1,0.1-1.8-0.1c-1-0.3-2.3-0.6-3.3,0.4c-1,1-0.6,2.3-0.4,3.3c0.3,1,0.4,1.7-0.1,2.1
		c-0.5,0.5-1.1,0.3-2.1,0.1c-1-0.3-2.3-0.6-3.3,0.4c-1,1-0.6,2.3-0.4,3.3c0.3,1,0.4,1.7-0.1,2.1c-0.5,0.5-1.1,0.3-2.1,0.1
		c-1-0.3-2.3-0.6-3.3,0.4c-1,1-0.6,2.3-0.4,3.3c0.2,0.8,0.3,1.4,0.1,1.9c0.4,0.1,0.8,0.2,1.2,0.3c0.3-0.8,0.1-1.7-0.1-2.5
		c-0.3-1-0.4-1.7,0.1-2.1c0.5-0.5,1.1-0.3,2.1-0.1c1,0.3,2.3,0.6,3.3-0.4c1-1,0.6-2.3,0.4-3.3c-0.3-1-0.4-1.7,0.1-2.1
		c0.5-0.5,1.1-0.3,2.1-0.1c1,0.3,2.3,0.6,3.3-0.4c1-1,0.6-2.3,0.4-3.3c-0.3-1-0.4-1.7,0.1-2.1c0.5-0.5,1.1-0.3,2.1-0.1
		c0.8,0.2,1.7,0.4,2.5,0.1C27.8,11.3,27.7,10.9,27.6,10.5z"/>
</g>
<g>
	<path class="st0" d="M26,14.3c-1,1-0.6,2.3-0.4,3.3c0.3,1,0.4,1.7-0.1,2.1c-0.5,0.5-1.1,0.3-2.1,0.1c-1-0.3-2.3-0.6-3.3,0.4
		c-1,1-0.6,2.3-0.4,3.3c0.3,1,0.4,1.7-0.1,2.1c-0.5,0.5-1.1,0.3-2.1,0.1c-1-0.3-2.3-0.6-3.3,0.4c-0.7,0.7-0.7,1.5-0.6,2.2
		c0.3,0,0.7,0.1,1,0.1c0.1,0,0.1,0,0.2,0c-0.1-0.6-0.1-1.1,0.2-1.4c0.5-0.5,1.1-0.3,2.1-0.1c1,0.3,2.3,0.6,3.3-0.4s0.6-2.3,0.4-3.3
		c-0.3-1-0.4-1.7,0.1-2.1c0.5-0.5,1.1-0.3,2.1-0.1c1,0.3,2.3,0.6,3.3-0.4c1-1,0.6-2.3,0.4-3.3c-0.3-1-0.4-1.7,0.1-2.1
		c0.3-0.3,0.8-0.4,1.4-0.2c0-0.1,0-0.1,0-0.2c0-0.4,0-0.7-0.1-1.1C27.4,13.6,26.6,13.6,26,14.3z"/>
</g>
</svg>
