<?xml version="1.0" encoding="utf-8"?>
<!-- Generator: Adobe Illustrator 22.1.0, SVG Export Plug-In . SVG Version: 6.00 Build 0)  -->
<svg version="1.1" id="Layer_1" xmlns="http://www.w3.org/2000/svg" xmlns:xlink="http://www.w3.org/1999/xlink" x="0px" y="0px"
	 viewBox="0 0 29.5 29.5" style="enable-background:new 0 0 29.5 29.5;" xml:space="preserve">
<style type="text/css">
	.st0{fill:#FFFFFF;}
</style>
<path class="st0" d="M14.7,1.2c7.5,0,13.5,6.1,13.5,13.5c0,7.5-6.1,13.5-13.5,13.5S1.2,22.2,1.2,14.7C1.2,7.3,7.3,1.2,14.7,1.2
	 M14.7,0C6.6,0,0,6.6,0,14.7s6.6,14.7,14.7,14.7s14.7-6.6,14.7-14.7S22.9,0,14.7,0L14.7,0z"/>
<g>
	<path class="st0" d="M14.7,1.2c-0.5,0-1,0-1.6,0.1L1.3,13.2c-0.1,0.5-0.1,1-0.1,1.6c0,0.1,0,0.1,0,0.2L15,1.2
		C14.9,1.2,14.8,1.2,14.7,1.2z"/>
</g>
<g>
	<path class="st0" d="M2.6,20.7L20.7,2.6c-0.4-0.2-0.8-0.4-1.2-0.5L2.1,19.5C2.2,19.9,2.4,20.3,2.6,20.7z"/>
</g>
<g>
	<path class="st0" d="M23.9,4.8L4.8,23.9c0.3,0.3,0.6,0.6,0.8,0.8L24.7,5.6C24.4,5.3,24.1,5,23.9,4.8z"/>
</g>
<g>
	<path class="st0" d="M10,27.4L27.4,10c-0.2-0.4-0.3-0.8-0.5-1.2L8.8,26.9C9.2,27.1,9.6,27.2,10,27.4z"/>
</g>
<g>
	<path class="st0" d="M28.3,14.7c0-0.1,0-0.2,0-0.2L14.5,28.3c0.1,0,0.2,0,0.2,0c0.5,0,1,0,1.5-0.1l11.9-11.9
		C28.2,15.8,28.3,15.3,28.3,14.7z"/>
</g>
</svg>
