<?xml version="1.0" encoding="utf-8"?>
<!-- Generator: Adobe Illustrator 23.0.2, SVG Export Plug-In . SVG Version: 6.00 Build 0)  -->
<svg version="1.1" id="Layer_1" xmlns="http://www.w3.org/2000/svg" xmlns:xlink="http://www.w3.org/1999/xlink" x="0px" y="0px"
	 viewBox="0 0 84.92 105.57" style="enable-background:new 0 0 84.92 105.57;" xml:space="preserve">
<style type="text/css">
	.st0{fill:#444444;}
</style>
<g>
	<path class="st0" d="M25.95,105.57c-0.79,0-1.62-0.27-2.27-0.86C8.63,91.62,0,72.68,0,52.78C0,32.84,8.63,13.9,23.68,0.84
		c1.44-1.24,3.61-1.1,4.85,0.34c1.24,1.44,1.1,3.61-0.34,4.85C14.64,17.82,6.87,34.83,6.87,52.78s7.77,34.99,21.31,46.74
		c1.44,1.24,1.58,3.4,0.34,4.85C27.87,105.16,26.91,105.57,25.95,105.57z"/>
	<path class="st0" d="M81.48,48.75h-39.9l7.29-7.29c1.34-1.34,1.34-3.51,0-4.85s-3.51-1.34-4.85,0L30.85,49.79
		c-0.03,0.03-0.07,0.1-0.1,0.14c-0.1,0.14-0.21,0.27-0.31,0.41c-0.1,0.14-0.17,0.27-0.27,0.45c-0.03,0.03-0.07,0.1-0.07,0.14
		c-0.03,0.1-0.03,0.21-0.07,0.31c-0.03,0.17-0.1,0.34-0.14,0.52c-0.03,0.17-0.03,0.34-0.03,0.48c0,0.17,0,0.34,0.03,0.48
		c0.03,0.17,0.07,0.34,0.14,0.52c0.03,0.1,0.03,0.21,0.07,0.31c0.03,0.03,0.07,0.1,0.07,0.14c0.07,0.14,0.17,0.27,0.27,0.45
		c0.1,0.14,0.21,0.27,0.31,0.41c0.03,0.03,0.07,0.1,0.1,0.14l13.16,13.16c0.69,0.69,1.55,1,2.44,1c0.89,0,1.75-0.34,2.44-1
		c1.34-1.34,1.34-3.51,0-4.85l-7.29-7.29h39.87c1.89,0,3.44-1.55,3.44-3.44S83.37,48.75,81.48,48.75z"/>
</g>
</svg>
