<svg enable-background="new 0 0 29.5 29.5" viewBox="0 0 29.5 29.5" xmlns="http://www.w3.org/2000/svg"><g fill="#444444"><path d="m14.7 1.2c3.5 0 6.9 1.3 9.6 4 5.3 5.3 5.3 13.9 0 19.1-2.6 2.6-6.1 4-9.6 4s-6.9-1.3-9.6-4c-5.3-5.3-5.3-13.9 0-19.1 2.7-2.7 6.2-4 9.6-4m0-1.2c-3.9 0-7.6 1.5-10.4 4.3s-4.3 6.5-4.3 10.4 1.5 7.6 4.3 10.4 6.5 4.3 10.4 4.3 7.6-1.5 10.4-4.3 4.3-6.5 4.3-10.4-1.5-7.6-4.3-10.4c-2.7-2.8-6.4-4.3-10.4-4.3z"/><path d="m14.7 28.3c7.5 0 13.5-6.1 13.5-13.5h-27c0 7.4 6.1 13.5 13.5 13.5z"/></g></svg>