<?xml version="1.0" encoding="utf-8"?>
<!-- Generator: Adobe Illustrator 23.0.2, SVG Export Plug-In . SVG Version: 6.00 Build 0)  -->
<svg version="1.1" id="Layer_1" xmlns="http://www.w3.org/2000/svg" xmlns:xlink="http://www.w3.org/1999/xlink" x="0px" y="0px"
	 viewBox="0 0 84.92 105.57" style="enable-background:new 0 0 84.92 105.57;" xml:space="preserve">
<style type="text/css">
	.st0{fill:#444444;}
</style>
<g>
	<path class="st0" d="M13.31,105.41c-1.89,0-3.43-1.54-3.43-3.43V3.59c0-1.89,1.54-3.43,3.43-3.43s3.43,1.54,3.43,3.43v98.4
		C16.73,103.87,15.19,105.41,13.31,105.41z"/>
	<path class="st0" d="M75.04,22.06c0-0.07-0.03-0.1-0.03-0.17c0-0.17-0.03-0.34-0.07-0.51c-0.03-0.17-0.07-0.34-0.14-0.48
		c-0.03-0.03-0.03-0.1-0.03-0.17c-0.03-0.1-0.1-0.17-0.17-0.27c-0.07-0.17-0.17-0.31-0.27-0.45c-0.1-0.14-0.21-0.24-0.34-0.38
		c-0.1-0.1-0.24-0.24-0.38-0.34c-0.14-0.1-0.27-0.17-0.45-0.27c-0.07,0-0.14-0.07-0.24-0.1c-0.03-0.03-0.1-0.03-0.17-0.03
		c-0.17-0.07-0.31-0.1-0.48-0.14c-0.17-0.03-0.34-0.07-0.51-0.07c-0.07,0-0.1-0.03-0.17-0.03H53.04c-0.96,0-1.82,0.38-2.43,0.99
		c-0.62,0.62-0.99,1.47-0.99,2.43c0,1.89,1.54,3.43,3.43,3.43h10.28L38.64,50.2c-1.34,1.34-1.34,3.5,0,4.83l0,0l23.92,23.92
		c0.69,0.69,1.54,0.99,2.43,0.99s1.75-0.34,2.43-0.99c1.34-1.34,1.34-3.5,0-4.83L45.91,52.6l22.28-22.28V40.6
		c0,1.89,1.54,3.43,3.43,3.43c1.89,0,3.43-1.54,3.43-3.43L75.04,22.06z"/>
</g>
</svg>
