<?xml version="1.0" encoding="utf-8"?>
<!-- Generator: Adobe Illustrator 22.1.0, SVG Export Plug-In . SVG Version: 6.00 Build 0)  -->
<svg version="1.1" id="Layer_1" xmlns="http://www.w3.org/2000/svg" xmlns:xlink="http://www.w3.org/1999/xlink" x="0px" y="0px"
	 viewBox="0 0 29.5 29.5" style="enable-background:new 0 0 29.5 29.5;" xml:space="preserve">
<style type="text/css">
	.st0{fill:#444444;}
</style>
<path class="st0" d="M14.7,1.2c7.5,0,13.5,6.1,13.5,13.5c0,7.5-6.1,13.5-13.5,13.5c-7.5,0-13.5-6.1-13.5-13.5
	C1.2,7.3,7.3,1.2,14.7,1.2 M14.7,0C6.6,0,0,6.6,0,14.7s6.6,14.7,14.7,14.7s14.7-6.6,14.7-14.7S22.9,0,14.7,0L14.7,0z"/>
<path class="st0" d="M3,21.5c2.3,4,6.7,6.7,11.7,6.8h0.1c5,0,9.3-2.7,11.7-6.8H3z"/>
</svg>
