<?xml version="1.0" encoding="utf-8"?>
<!-- Generator: Adobe Illustrator 23.0.2, SVG Export Plug-In . SVG Version: 6.00 Build 0)  -->
<svg version="1.1" id="Layer_1" xmlns="http://www.w3.org/2000/svg" xmlns:xlink="http://www.w3.org/1999/xlink" x="0px" y="0px"
	 viewBox="0 0 84.92 105.57" style="enable-background:new 0 0 84.92 105.57;" xml:space="preserve">
<style type="text/css">
	.st0{fill:#444444;}
</style>
<g>
	<path class="st0" d="M4.14,105.4c-1.88,0-3.43-1.54-3.43-3.43V3.6c0-1.88,1.54-3.43,3.43-3.43S7.57,1.72,7.57,3.6v98.37
		C7.57,103.85,6.02,105.4,4.14,105.4z"/>
	<path class="st0" d="M32.74,34.12h39.78l-7.26,7.26c-1.34,1.34-1.34,3.49,0,4.83s3.49,1.34,4.83,0L83.21,33.1
		c0.03-0.03,0.07-0.1,0.1-0.14c0.1-0.14,0.21-0.27,0.31-0.41c0.1-0.14,0.17-0.27,0.27-0.45c0.03-0.03,0.07-0.1,0.07-0.14
		c0.03-0.1,0.03-0.21,0.07-0.31c0.03-0.17,0.1-0.34,0.14-0.51c0.03-0.17,0.03-0.34,0.03-0.48c0-0.17,0-0.34-0.03-0.48
		c-0.03-0.17-0.07-0.34-0.14-0.51c-0.03-0.1-0.03-0.21-0.07-0.31c-0.03-0.03-0.07-0.1-0.07-0.14c-0.07-0.14-0.17-0.27-0.27-0.45
		c-0.1-0.14-0.21-0.27-0.31-0.41c-0.03-0.03-0.07-0.1-0.1-0.14L70.09,15.11c-0.69-0.69-1.54-0.99-2.43-0.99
		c-0.89,0-1.75,0.34-2.43,0.99c-1.34,1.34-1.34,3.49,0,4.83l7.26,7.26H32.74c-1.88,0-3.43,1.54-3.43,3.43
		C29.32,32.51,30.86,34.12,32.74,34.12z"/>
	<path class="st0" d="M80.78,71.48H41l7.26-7.26c1.34-1.34,1.34-3.49,0-4.83c-1.34-1.34-3.49-1.34-4.83,0L30.31,72.51
		c-0.03,0.03-0.07,0.1-0.1,0.14c-0.1,0.14-0.21,0.27-0.31,0.41c-0.1,0.14-0.17,0.27-0.27,0.45c-0.03,0.03-0.07,0.1-0.07,0.14
		c-0.03,0.1-0.03,0.21-0.07,0.31c-0.03,0.17-0.1,0.34-0.14,0.51c-0.03,0.17-0.03,0.34-0.03,0.48c0,0.17,0,0.34,0.03,0.48
		c0.03,0.17,0.07,0.34,0.14,0.51c0.03,0.1,0.03,0.21,0.07,0.31c0.03,0.03,0.07,0.1,0.07,0.14c0.07,0.14,0.17,0.27,0.27,0.45
		c0.1,0.14,0.21,0.27,0.31,0.41c0.03,0.03,0.07,0.1,0.1,0.14L43.43,90.5c0.69,0.69,1.54,0.99,2.43,0.99c0.89,0,1.75-0.34,2.43-0.99
		c1.34-1.34,1.34-3.49,0-4.83l-7.26-7.26h39.74c1.88,0,3.43-1.54,3.43-3.43C84.21,73.09,82.67,71.48,80.78,71.48z"/>
</g>
</svg>
